{"glyphs":{"0":{"ha":1039,"x_min":0,"x_max":0,"o":"m 519 878 b 692 542 675 878 692 844 b 519 206 692 239 675 206 b 347 542 364 206 347 239 b 519 878 347 844 364 878 z m 42 542 b 519 -17 42 94 138 -17 b 997 542 901 -17 997 94 b 519 1100 997 989 901 1100 b 42 542 138 1100 42 989 z "},"1":{"ha":639,"x_min":0,"x_max":0,"o":"m 306 0 l 569 0 l 569 1083 l 319 1083 b 168 915 319 942 289 915 l 42 915 l 42 721 l 306 721 z "},"2":{"ha":1004,"x_min":0,"x_max":0,"o":"m 949 0 l 949 250 l 526 250 l 828 508 b 926 822 940 606 922 667 b 488 1100 935 1044 847 1100 b 42 725 142 1100 42 1025 l 347 725 b 486 864 347 849 361 864 b 643 769 628 864 643 853 b 529 599 643 710 621 675 l 50 194 l 50 0 z "},"3":{"ha":1075,"x_min":0,"x_max":0,"o":"m 514 206 b 333 317 351 206 333 217 l 56 317 b 522 -17 56 50 149 -17 b 1006 281 908 -17 1006 43 b 813 553 1006 450 946 535 b 972 808 924 572 972 651 b 522 1100 972 1042 882 1100 b 75 788 164 1100 75 1038 l 339 788 b 522 878 339 868 368 878 b 708 772 679 878 708 861 b 522 664 708 681 679 664 l 346 664 l 346 442 l 514 442 b 728 325 694 442 728 424 b 514 206 728 225 694 206 z "},"4":{"ha":1025,"x_min":0,"x_max":0,"o":"m 597 0 l 861 0 l 861 190 l 983 190 l 983 426 l 861 426 l 861 1100 l 690 1100 l 690 1099 l 649 1099 l 14 367 l 7 363 l 7 190 l 597 190 z m 314 426 l 597 754 l 597 426 z "},"5":{"ha":1082,"x_min":0,"x_max":0,"o":"m 931 1083 l 136 1083 l 89 435 l 343 435 b 525 526 363 508 399 526 b 707 361 689 526 707 510 l 707 360 b 542 219 707 233 690 219 b 361 324 374 219 354 229 l 56 324 b 553 -17 56 51 158 -17 b 1013 367 921 -17 1013 60 b 656 746 1013 669 942 746 b 368 632 489 746 400 711 l 383 847 l 931 847 z "},"6":{"ha":1035,"x_min":0,"x_max":0,"o":"m 993 374 b 635 760 993 682 921 760 b 356 613 471 760 383 714 b 518 847 360 822 388 847 l 904 847 l 904 1083 l 628 1083 b 42 522 158 1083 42 971 b 522 -17 42 92 138 -17 b 993 374 899 -17 993 61 z m 356 371 b 522 531 356 483 406 531 b 688 372 671 531 688 515 b 522 206 688 222 671 206 b 356 371 372 206 356 222 z "},"7":{"ha":926,"x_min":0,"x_max":0,"o":"m 7 1083 l 7 667 l 243 667 l 243 849 l 578 847 l 186 0 l 507 0 l 919 889 l 919 1083 z "},"8":{"ha":1065,"x_min":0,"x_max":0,"o":"m 533 675 b 375 776 393 675 375 685 b 533 878 375 868 393 878 b 692 776 674 878 692 868 b 533 675 692 685 674 675 z m 42 285 b 533 -17 42 43 146 -17 b 1024 285 919 -17 1024 43 b 803 564 1024 460 956 546 b 956 799 908 585 956 658 b 533 1100 956 1040 865 1100 b 111 799 201 1100 111 1040 b 265 564 111 658 158 585 b 42 285 110 546 42 460 z m 347 329 b 533 453 347 440 368 453 b 719 329 699 453 719 440 b 533 206 719 218 699 206 b 347 329 368 206 347 218 z "},"9":{"ha":1026,"x_min":0,"x_max":0,"o":"m 42 718 b 446 371 42 440 122 371 b 679 501 581 371 654 411 l 679 303 b 529 192 679 203 664 192 b 379 281 394 192 379 200 l 74 281 b 511 -11 74 47 161 -11 b 985 535 890 -11 985 99 b 513 1100 982 988 888 1100 b 42 718 136 1100 42 1024 z m 347 725 l 347 726 b 513 878 347 863 364 878 b 679 731 663 878 679 863 b 513 607 679 644 629 607 b 347 725 364 607 347 618 z "}," ":{"ha":417,"x_min":0,"x_max":0,"o":""},"A":{"ha":1201,"x_min":0,"x_max":0,"o":"m 847 1083 l 364 1083 l 7 0 l 321 0 l 386 211 l 803 211 l 861 0 l 1194 0 z m 461 447 l 593 847 l 601 847 l 731 447 z "},"Á":{"ha":1201,"x_min":0,"x_max":0,"o":"m 847 1083 l 364 1083 l 7 0 l 321 0 l 386 211 l 803 211 l 861 0 l 1194 0 z m 461 447 l 593 847 l 601 847 l 731 447 z m 500 1167 l 667 1167 l 875 1363 l 597 1363 z "},"Ă":{"ha":1201,"x_min":0,"x_max":0,"o":"m 847 1083 l 364 1083 l 7 0 l 321 0 l 386 211 l 803 211 l 861 0 l 1194 0 z m 389 1361 b 599 1164 389 1194 422 1164 b 806 1361 774 1164 806 1194 l 681 1361 b 599 1219 681 1242 668 1219 b 514 1360 526 1219 514 1242 z m 461 447 l 593 847 l 601 847 l 731 447 z "},"Â":{"ha":1201,"x_min":0,"x_max":0,"o":"m 847 1083 l 364 1083 l 7 0 l 321 0 l 386 211 l 803 211 l 861 0 l 1194 0 z m 318 1167 l 472 1167 l 593 1246 l 601 1246 l 719 1167 l 874 1167 l 683 1361 l 508 1361 z m 461 447 l 593 847 l 601 847 l 731 447 z "},"Ä":{"ha":1201,"x_min":0,"x_max":0,"o":"m 847 1083 l 364 1083 l 7 0 l 321 0 l 386 211 l 803 211 l 861 0 l 1194 0 z m 333 1167 l 556 1167 l 556 1361 l 333 1361 z m 461 447 l 593 847 l 601 847 l 731 447 z m 639 1167 l 861 1167 l 861 1361 l 639 1361 z "},"À":{"ha":1201,"x_min":0,"x_max":0,"o":"m 847 1083 l 364 1083 l 7 0 l 321 0 l 386 211 l 803 211 l 861 0 l 1194 0 z m 319 1363 l 528 1167 l 694 1167 l 597 1363 z m 461 447 l 593 847 l 601 847 l 731 447 z "},"Ā":{"ha":1201,"x_min":0,"x_max":0,"o":"m 847 1083 l 364 1083 l 7 0 l 321 0 l 386 211 l 803 211 l 861 0 l 1194 0 z m 375 1181 l 819 1181 l 819 1306 l 375 1306 z m 461 447 l 593 847 l 601 847 l 731 447 z "},"Ą":{"ha":1201,"x_min":0,"x_max":0,"o":"m 847 1083 l 364 1083 l 7 0 l 321 0 l 386 211 l 803 211 l 861 0 l 1131 0 b 946 -187 996 -79 946 -129 b 1078 -294 946 -265 986 -294 b 1167 -278 1125 -294 1146 -290 l 1167 -214 b 1074 -179 1099 -231 1074 -221 b 1194 0 1074 -135 1107 -86 z m 461 447 l 593 847 l 601 847 l 731 447 z "},"Å":{"ha":1201,"x_min":0,"x_max":0,"o":"m 847 1083 l 364 1083 l 7 0 l 321 0 l 386 211 l 803 211 l 861 0 l 1194 0 z m 438 1274 b 599 1167 438 1192 481 1167 b 757 1274 714 1167 757 1192 b 599 1378 757 1356 714 1378 b 438 1274 481 1378 438 1356 z m 461 447 l 593 847 l 601 847 l 731 447 z m 535 1272 b 597 1328 535 1319 543 1328 b 660 1272 651 1328 660 1319 b 597 1217 660 1225 651 1217 b 535 1272 543 1217 535 1225 z "},"Ã":{"ha":1201,"x_min":0,"x_max":0,"o":"m 847 1083 l 364 1083 l 7 0 l 321 0 l 386 211 l 803 211 l 861 0 l 1194 0 z m 333 1188 l 431 1188 b 494 1244 442 1229 458 1244 b 706 1165 558 1244 581 1165 b 889 1356 839 1165 889 1217 l 792 1356 b 728 1299 781 1314 764 1299 b 517 1378 664 1299 642 1378 b 333 1188 383 1378 333 1326 z m 461 447 l 593 847 l 601 847 l 731 447 z "},"Æ":{"ha":1656,"x_min":0,"x_max":0,"o":"m 1597 1083 l 364 1083 l 7 0 l 321 0 l 386 211 l 708 211 l 708 0 l 1600 0 l 1600 250 l 1000 250 l 1000 431 l 1542 431 l 1542 667 l 1000 667 l 1000 833 l 1597 833 z m 461 447 l 589 833 l 708 833 l 708 447 z "},"B":{"ha":1124,"x_min":0,"x_max":0,"o":"m 69 1083 l 69 0 l 724 0 b 1068 285 989 0 1068 57 b 829 547 1068 449 990 531 b 1029 801 963 567 1029 646 b 724 1083 1029 1026 958 1083 z m 361 222 l 361 439 l 635 439 b 764 329 725 439 764 406 b 635 222 764 233 751 222 z m 361 661 l 361 861 l 607 861 b 725 760 714 861 725 851 b 607 661 725 690 690 661 z "},"C":{"ha":1188,"x_min":0,"x_max":0,"o":"m 1146 460 l 840 460 b 596 219 843 243 818 219 b 347 542 372 219 347 251 b 596 864 347 832 372 864 b 840 626 818 864 843 840 l 1146 626 b 596 1100 1149 1006 1039 1100 b 42 542 153 1100 42 989 b 596 -17 42 94 153 -17 b 1146 460 1039 -17 1149 79 z "},"Ć":{"ha":1188,"x_min":0,"x_max":0,"o":"m 1146 460 l 840 460 b 596 219 843 243 818 219 b 347 542 372 219 347 251 b 596 864 347 832 372 864 b 840 626 818 864 843 840 l 1146 626 b 596 1100 1149 1006 1039 1100 b 42 542 153 1100 42 989 b 596 -17 42 94 153 -17 b 1146 460 1039 -17 1149 79 z m 525 1165 l 692 1165 l 900 1361 l 622 1361 z "},"Č":{"ha":1188,"x_min":0,"x_max":0,"o":"m 1146 460 l 840 460 b 596 219 843 243 818 219 b 347 542 372 219 347 251 b 596 864 347 832 372 864 b 840 626 818 864 843 840 l 1146 626 b 596 1100 1149 1006 1039 1100 b 42 542 153 1100 42 989 b 596 -17 42 94 153 -17 b 1146 460 1039 -17 1149 79 z m 343 1360 l 533 1165 l 708 1165 l 899 1360 l 744 1360 l 626 1281 l 618 1281 l 497 1360 z "},"Ç":{"ha":1188,"x_min":0,"x_max":0,"o":"m 1146 460 l 840 460 b 596 219 843 243 818 219 b 347 542 372 219 347 251 b 596 864 347 832 372 864 b 840 626 818 864 843 840 l 1146 626 b 596 1100 1149 1006 1039 1100 b 42 542 153 1100 42 989 b 585 -17 42 99 151 -15 l 507 -51 l 507 -115 b 642 -167 617 -115 642 -128 l 642 -181 b 507 -232 642 -219 617 -232 l 507 -296 l 546 -296 b 769 -174 721 -296 769 -264 b 631 -56 769 -104 738 -67 l 654 -17 b 1146 460 1049 -7 1149 96 z "},"D":{"ha":1165,"x_min":0,"x_max":0,"o":"m 361 833 l 599 833 b 818 542 796 833 818 804 b 599 250 818 279 796 250 l 361 250 l 360 542 z m 69 0 l 629 0 b 1124 542 1025 0 1124 108 b 629 1083 1124 975 1025 1083 l 69 1083 z "},"Ð":{"ha":1360,"x_min":0,"x_max":0,"o":"m 500 833 l 738 833 b 957 542 935 833 957 804 b 738 250 957 279 935 250 l 500 250 l 499 436 l 678 436 l 678 672 l 499 672 z m 83 436 l 208 436 l 208 0 l 768 0 b 1263 542 1164 0 1263 108 b 768 1083 1263 975 1164 1083 l 208 1083 l 208 672 l 83 672 z "},"Ď":{"ha":1165,"x_min":0,"x_max":0,"o":"m 361 833 l 599 833 b 818 542 796 833 818 804 b 599 250 818 279 796 250 l 361 250 l 360 542 z m 69 0 l 629 0 b 1124 542 1025 0 1124 108 b 629 1083 1124 975 1025 1083 l 69 1083 z m 310 1361 l 500 1167 l 675 1167 l 865 1361 l 711 1361 l 593 1282 l 585 1282 l 464 1361 z "},"Đ":{"ha":1360,"x_min":0,"x_max":0,"o":"m 500 833 l 738 833 b 957 542 935 833 957 804 b 738 250 957 279 935 250 l 500 250 l 499 436 l 678 436 l 678 672 l 499 672 z m 83 436 l 208 436 l 208 0 l 768 0 b 1263 542 1164 0 1263 108 b 768 1083 1263 975 1164 1083 l 208 1083 l 208 672 l 83 672 z "},"E":{"ha":1017,"x_min":0,"x_max":0,"o":"m 69 1083 l 69 0 l 961 0 l 961 250 l 361 250 l 361 431 l 903 431 l 903 667 l 361 667 l 361 833 l 958 833 l 958 1083 z "},"É":{"ha":1017,"x_min":0,"x_max":0,"o":"m 69 1083 l 69 0 l 961 0 l 961 250 l 361 250 l 361 431 l 903 431 l 903 667 l 361 667 l 361 833 l 958 833 l 958 1083 z m 431 1167 l 597 1167 l 806 1363 l 528 1363 z "},"Ě":{"ha":1017,"x_min":0,"x_max":0,"o":"m 69 1083 l 69 0 l 961 0 l 961 250 l 361 250 l 361 431 l 903 431 l 903 667 l 361 667 l 361 833 l 958 833 l 958 1083 z m 249 1361 l 439 1167 l 614 1167 l 804 1361 l 650 1361 l 532 1282 l 524 1282 l 403 1361 z "},"Ê":{"ha":1017,"x_min":0,"x_max":0,"o":"m 69 1083 l 69 0 l 961 0 l 961 250 l 361 250 l 361 431 l 903 431 l 903 667 l 361 667 l 361 833 l 958 833 l 958 1083 z m 249 1167 l 403 1167 l 524 1246 l 532 1246 l 650 1167 l 804 1167 l 614 1361 l 439 1361 z "},"Ë":{"ha":1017,"x_min":0,"x_max":0,"o":"m 69 1083 l 69 0 l 961 0 l 961 250 l 361 250 l 361 431 l 903 431 l 903 667 l 361 667 l 361 833 l 958 833 l 958 1083 z m 264 1167 l 486 1167 l 486 1361 l 264 1361 z m 569 1167 l 792 1167 l 792 1361 l 569 1361 z "},"Ė":{"ha":1017,"x_min":0,"x_max":0,"o":"m 69 1083 l 69 0 l 961 0 l 961 250 l 361 250 l 361 431 l 903 431 l 903 667 l 361 667 l 361 833 l 958 833 l 958 1083 z m 389 1167 l 667 1167 l 667 1361 l 389 1361 z "},"È":{"ha":1017,"x_min":0,"x_max":0,"o":"m 69 1083 l 69 0 l 961 0 l 961 250 l 361 250 l 361 431 l 903 431 l 903 667 l 361 667 l 361 833 l 958 833 l 958 1083 z m 250 1363 l 458 1167 l 625 1167 l 528 1363 z "},"Ē":{"ha":1017,"x_min":0,"x_max":0,"o":"m 69 1083 l 69 0 l 961 0 l 961 250 l 361 250 l 361 431 l 903 431 l 903 667 l 361 667 l 361 833 l 958 833 l 958 1083 z m 306 1181 l 750 1181 l 750 1306 l 306 1306 z "},"Ę":{"ha":1017,"x_min":0,"x_max":0,"o":"m 69 1083 l 69 0 l 897 0 b 713 -187 763 -79 713 -129 b 844 -294 713 -265 753 -294 b 933 -278 892 -294 913 -290 l 933 -214 b 840 -179 865 -231 840 -221 b 961 0 840 -135 874 -86 l 961 250 l 361 250 l 361 431 l 903 431 l 903 667 l 361 667 l 361 833 l 958 833 l 958 1083 z "},"F":{"ha":1014,"x_min":0,"x_max":0,"o":"m 69 1083 l 69 0 l 361 0 l 361 389 l 903 389 l 903 639 l 361 639 l 361 833 l 958 833 l 958 1083 z "},"G":{"ha":1189,"x_min":0,"x_max":0,"o":"m 614 581 l 614 358 l 836 358 b 589 219 831 261 756 219 b 347 542 371 219 347 251 b 589 864 347 832 371 864 b 828 697 807 864 831 847 l 1133 697 b 589 1100 1136 1019 1028 1100 b 42 542 151 1100 42 989 b 589 -17 42 94 151 -17 b 869 174 746 -17 835 42 l 869 0 l 1133 0 l 1133 581 z "},"Ģ":{"ha":1189,"x_min":0,"x_max":0,"o":"m 614 581 l 614 358 l 836 358 b 589 219 831 261 756 219 b 347 542 371 219 347 251 b 589 864 347 832 371 864 b 828 697 807 864 831 847 l 1133 697 b 589 1100 1136 1019 1028 1100 b 42 542 151 1100 42 989 b 589 -17 42 94 151 -17 b 869 174 746 -17 835 42 l 869 0 l 1133 0 l 1133 581 z m 474 -190 l 607 -190 b 475 -232 599 -224 567 -232 l 475 -296 l 514 -296 b 738 -115 689 -296 738 -261 l 738 -57 l 474 -57 z "},"H":{"ha":1139,"x_min":0,"x_max":0,"o":"m 69 0 l 361 0 l 361 428 l 778 428 l 778 0 l 1069 0 l 1069 1083 l 778 1083 l 778 678 l 361 678 l 361 1083 l 69 1083 z "},"I":{"ha":431,"x_min":0,"x_max":0,"o":"m 69 0 l 361 0 l 361 1083 l 69 1083 z "},"Í":{"ha":431,"x_min":0,"x_max":0,"o":"m 69 0 l 361 0 l 361 1083 l 69 1083 z m 118 1194 l 285 1194 l 493 1390 l 215 1390 z "},"Î":{"ha":431,"x_min":0,"x_max":0,"o":"m 69 0 l 361 0 l 361 1083 l 69 1083 z m -64 1194 l 90 1194 l 211 1274 l 219 1274 l 338 1194 l 492 1194 l 301 1389 l 126 1389 z "},"Ï":{"ha":431,"x_min":0,"x_max":0,"o":"m 69 0 l 361 0 l 361 1083 l 69 1083 z m -49 1194 l 174 1194 l 174 1389 l -49 1389 z m 257 1194 l 479 1194 l 479 1389 l 257 1389 z "},"Ì":{"ha":431,"x_min":0,"x_max":0,"o":"m 69 0 l 361 0 l 361 1083 l 69 1083 z m -62 1390 l 146 1194 l 313 1194 l 215 1390 z "},"Ī":{"ha":431,"x_min":0,"x_max":0,"o":"m 69 0 l 361 0 l 361 1083 l 69 1083 z m -7 1208 l 438 1208 l 438 1333 l -7 1333 z "},"Į":{"ha":431,"x_min":0,"x_max":0,"o":"m 69 0 l 297 0 b 113 -187 163 -79 113 -129 b 244 -294 113 -265 153 -294 b 333 -278 292 -294 313 -290 l 333 -214 b 240 -179 265 -231 240 -221 b 361 0 240 -135 274 -86 l 361 1083 l 69 1083 z "},"J":{"ha":947,"x_min":0,"x_max":0,"o":"m 333 364 l 333 475 l 42 475 l 42 364 b 468 -17 42 60 126 -17 b 892 363 807 -17 892 60 l 892 1083 l 600 1083 l 600 363 b 468 222 600 236 588 222 b 333 364 347 222 333 236 z "},"K":{"ha":1093,"x_min":0,"x_max":0,"o":"m 69 0 l 361 0 l 361 228 l 528 414 l 764 0 l 1086 0 l 731 606 l 1058 1083 l 721 1083 l 361 556 l 361 1083 l 69 1083 z "},"Ķ":{"ha":1156,"x_min":0,"x_max":0,"o":"m 433 -56 l 433 -189 l 567 -189 b 435 -231 558 -222 526 -231 l 435 -294 l 474 -294 b 697 -114 649 -294 697 -260 l 697 -56 z m 83 0 l 375 0 l 375 228 l 542 414 l 778 0 l 1100 0 l 744 606 l 1072 1083 l 735 1083 l 375 556 l 375 1083 l 83 1083 z "},"L":{"ha":896,"x_min":0,"x_max":0,"o":"m 69 1083 l 69 0 l 889 0 l 889 250 l 361 250 l 361 1083 z "},"Ĺ":{"ha":896,"x_min":0,"x_max":0,"o":"m 69 1083 l 69 0 l 889 0 l 889 250 l 361 250 l 361 1083 z m 383 1167 l 550 1167 l 758 1363 l 481 1363 z "},"Ľ":{"ha":896,"x_min":0,"x_max":0,"o":"m 69 1083 l 69 0 l 889 0 l 889 250 l 361 250 l 361 1083 z m 700 721 l 825 721 l 936 1111 l 700 1111 z "},"Ļ":{"ha":896,"x_min":0,"x_max":0,"o":"m 69 1083 l 69 0 l 889 0 l 889 250 l 361 250 l 361 1083 z m 365 -189 l 499 -189 b 367 -231 490 -222 458 -231 l 367 -294 l 406 -294 b 629 -114 581 -294 629 -260 l 629 -56 l 365 -56 z "},"Ł":{"ha":1040,"x_min":0,"x_max":0,"o":"m 167 1083 l 167 588 l 83 568 l 83 429 l 167 449 l 167 0 l 986 0 l 986 250 l 458 250 l 458 518 l 578 546 l 578 685 l 458 657 l 458 1083 z "},"M":{"ha":1517,"x_min":0,"x_max":0,"o":"m 361 0 l 361 806 l 369 806 l 532 0 l 983 0 l 1147 806 l 1156 806 l 1156 0 l 1447 0 l 1447 1083 l 935 1083 l 771 278 l 760 278 l 597 1083 l 69 1083 l 69 0 z "},"N":{"ha":1194,"x_min":0,"x_max":0,"o":"m 69 0 l 361 0 l 361 590 l 369 590 l 850 0 l 1125 0 l 1125 1083 l 833 1083 l 833 492 l 825 492 l 346 1083 l 69 1083 z "},"Ń":{"ha":1194,"x_min":0,"x_max":0,"o":"m 69 0 l 361 0 l 361 590 l 369 590 l 850 0 l 1125 0 l 1125 1083 l 833 1083 l 833 492 l 825 492 l 346 1083 l 69 1083 z m 485 1167 l 651 1167 l 860 1363 l 582 1363 z "},"Ň":{"ha":1194,"x_min":0,"x_max":0,"o":"m 69 0 l 361 0 l 361 590 l 369 590 l 850 0 l 1125 0 l 1125 1083 l 833 1083 l 833 492 l 825 492 l 346 1083 l 69 1083 z m 303 1361 l 493 1167 l 668 1167 l 858 1361 l 704 1361 l 586 1282 l 578 1282 l 457 1361 z "},"Ņ":{"ha":1194,"x_min":0,"x_max":0,"o":"m 69 0 l 361 0 l 361 590 l 369 590 l 850 0 l 1125 0 l 1125 1083 l 833 1083 l 833 492 l 825 492 l 346 1083 l 69 1083 z m 467 -189 l 600 -189 b 468 -231 592 -222 560 -231 l 468 -294 l 507 -294 b 731 -114 682 -294 731 -260 l 731 -56 l 467 -56 z "},"Ñ":{"ha":1194,"x_min":0,"x_max":0,"o":"m 69 0 l 361 0 l 361 590 l 369 590 l 850 0 l 1125 0 l 1125 1083 l 833 1083 l 833 492 l 825 492 l 346 1083 l 69 1083 z m 318 1188 l 415 1188 b 479 1244 426 1229 443 1244 b 690 1165 543 1244 565 1165 b 874 1356 824 1165 874 1217 l 776 1356 b 713 1299 765 1314 749 1299 b 501 1378 649 1299 626 1378 b 318 1188 368 1378 318 1326 z "},"O":{"ha":1208,"x_min":0,"x_max":0,"o":"m 604 864 b 861 542 836 864 861 832 b 604 219 861 251 836 219 b 347 542 372 219 347 251 b 604 864 347 832 372 864 z m 42 542 b 604 -17 42 94 154 -17 b 1167 542 1054 -17 1167 94 b 604 1100 1167 989 1054 1100 b 42 542 154 1100 42 989 z "},"Ó":{"ha":1208,"x_min":0,"x_max":0,"o":"m 604 864 b 861 542 836 864 861 832 b 604 219 861 251 836 219 b 347 542 372 219 347 251 b 604 864 347 832 372 864 z m 42 542 b 604 -17 42 94 154 -17 b 1167 542 1054 -17 1167 94 b 604 1100 1167 989 1054 1100 b 42 542 154 1100 42 989 z m 507 1167 l 674 1167 l 882 1363 l 604 1363 z "},"Ô":{"ha":1208,"x_min":0,"x_max":0,"o":"m 604 864 b 861 542 836 864 861 832 b 604 219 861 251 836 219 b 347 542 372 219 347 251 b 604 864 347 832 372 864 z m 42 542 b 604 -17 42 94 154 -17 b 1167 542 1054 -17 1167 94 b 604 1100 1167 989 1054 1100 b 42 542 154 1100 42 989 z m 325 1167 l 479 1167 l 600 1246 l 608 1246 l 726 1167 l 881 1167 l 690 1361 l 515 1361 z "},"Ö":{"ha":1208,"x_min":0,"x_max":0,"o":"m 604 864 b 861 542 836 864 861 832 b 604 219 861 251 836 219 b 347 542 372 219 347 251 b 604 864 347 832 372 864 z m 42 542 b 604 -17 42 94 154 -17 b 1167 542 1054 -17 1167 94 b 604 1100 1167 989 1054 1100 b 42 542 154 1100 42 989 z m 340 1167 l 563 1167 l 563 1361 l 340 1361 z m 646 1167 l 868 1167 l 868 1361 l 646 1361 z "},"Ò":{"ha":1208,"x_min":0,"x_max":0,"o":"m 604 864 b 861 542 836 864 861 832 b 604 219 861 251 836 219 b 347 542 372 219 347 251 b 604 864 347 832 372 864 z m 42 542 b 604 -17 42 94 154 -17 b 1167 542 1054 -17 1167 94 b 604 1100 1167 989 1054 1100 b 42 542 154 1100 42 989 z m 326 1363 l 535 1167 l 701 1167 l 604 1363 z "},"Ő":{"ha":1208,"x_min":0,"x_max":0,"o":"m 604 864 b 861 542 836 864 861 832 b 604 219 861 251 836 219 b 347 542 372 219 347 251 b 604 864 347 832 372 864 z m 42 542 b 604 -17 42 94 154 -17 b 1167 542 1054 -17 1167 94 b 604 1100 1167 989 1054 1100 b 42 542 154 1100 42 989 z m 406 1167 l 558 1167 l 711 1363 l 503 1363 z m 669 1167 l 822 1167 l 975 1363 l 767 1363 z "},"Ō":{"ha":1208,"x_min":0,"x_max":0,"o":"m 604 864 b 861 542 836 864 861 832 b 604 219 861 251 836 219 b 347 542 372 219 347 251 b 604 864 347 832 372 864 z m 42 542 b 604 -17 42 94 154 -17 b 1167 542 1054 -17 1167 94 b 604 1100 1167 989 1054 1100 b 42 542 154 1100 42 989 z m 382 1181 l 826 1181 l 826 1306 l 382 1306 z "},"Ø":{"ha":1417,"x_min":0,"x_max":0,"o":"m 681 864 b 897 810 797 864 863 856 l 436 342 b 424 542 426 389 424 453 b 681 864 424 832 449 864 z m 83 -17 l 235 -17 l 297 46 b 681 -17 383 0 507 -17 b 1243 542 1131 -17 1243 94 b 1172 936 1243 724 1225 850 l 1333 1100 l 1182 1100 l 1099 1015 b 681 1100 1013 1078 879 1100 b 118 542 231 1100 118 989 b 213 115 118 335 142 200 z m 494 247 l 932 693 b 938 542 936 653 938 603 b 681 219 938 251 913 219 b 494 247 590 219 532 224 z "},"Õ":{"ha":1208,"x_min":0,"x_max":0,"o":"m 604 864 b 861 542 836 864 861 832 b 604 219 861 251 836 219 b 347 542 372 219 347 251 b 604 864 347 832 372 864 z m 42 542 b 604 -17 42 94 154 -17 b 1167 542 1054 -17 1167 94 b 604 1100 1167 989 1054 1100 b 42 542 154 1100 42 989 z m 340 1188 l 438 1188 b 501 1244 449 1229 465 1244 b 713 1165 565 1244 588 1165 b 896 1356 846 1165 896 1217 l 799 1356 b 735 1299 788 1314 771 1299 b 524 1378 671 1299 649 1378 b 340 1188 390 1378 340 1326 z "},"Œ":{"ha":1919,"x_min":0,"x_max":0,"o":"m 604 864 b 861 542 817 864 861 814 b 604 219 861 269 817 219 b 347 542 392 219 347 269 b 604 864 347 814 392 864 z m 42 542 b 604 -17 42 71 135 -17 b 972 139 800 -17 914 14 l 972 0 l 1864 0 l 1864 250 l 1264 250 l 1264 431 l 1806 431 l 1806 667 l 1264 667 l 1264 833 l 1861 833 l 1861 1083 l 972 1083 l 972 944 b 604 1100 914 1069 800 1100 b 42 542 135 1100 42 1013 z "},"P":{"ha":1092,"x_min":0,"x_max":0,"o":"m 69 1083 l 69 0 l 361 0 l 361 354 l 714 354 b 1050 722 983 368 1050 442 b 689 1083 1050 1011 978 1083 z m 361 604 l 361 847 l 614 847 b 758 721 744 847 758 835 b 614 604 758 615 744 604 z "},"Þ":{"ha":1092,"x_min":0,"x_max":0,"o":"m 69 1111 l 69 0 l 347 0 l 347 206 l 714 206 b 1050 574 983 219 1050 293 b 689 935 1050 863 978 935 l 347 935 l 347 1111 z m 347 456 l 347 699 l 614 699 b 758 572 744 699 758 686 b 614 456 758 467 744 456 z "},"Q":{"ha":1253,"x_min":0,"x_max":0,"o":"m 647 236 l 594 236 b 347 542 372 236 347 267 b 606 864 347 832 374 864 b 864 542 838 864 864 832 b 647 236 864 267 842 236 z m 42 542 b 606 0 42 108 154 0 l 1211 0 l 1211 236 l 956 236 b 1169 542 1104 264 1169 360 b 606 1100 1169 989 1057 1100 b 42 542 154 1100 42 989 z "},"R":{"ha":1106,"x_min":0,"x_max":0,"o":"m 689 1083 l 69 1083 l 69 0 l 361 0 l 361 382 l 578 382 b 744 250 729 382 744 369 l 744 0 l 1050 0 l 1050 267 b 832 485 1050 406 976 469 b 1050 769 983 506 1050 590 b 689 1083 1050 1021 978 1083 z m 361 604 l 361 847 l 614 847 b 758 728 744 847 758 835 b 614 604 758 617 744 604 z "},"Ŕ":{"ha":1106,"x_min":0,"x_max":0,"o":"m 689 1083 l 69 1083 l 69 0 l 361 0 l 361 382 l 578 382 b 744 250 729 382 744 369 l 744 0 l 1050 0 l 1050 267 b 832 485 1050 406 976 469 b 1050 769 983 506 1050 590 b 689 1083 1050 1021 978 1083 z m 361 604 l 361 847 l 614 847 b 758 728 744 847 758 835 b 614 604 758 617 744 604 z m 444 1167 l 611 1167 l 819 1363 l 542 1363 z "},"Ř":{"ha":1106,"x_min":0,"x_max":0,"o":"m 689 1083 l 69 1083 l 69 0 l 361 0 l 361 382 l 578 382 b 744 250 729 382 744 369 l 744 0 l 1050 0 l 1050 267 b 832 485 1050 406 976 469 b 1050 769 983 506 1050 590 b 689 1083 1050 1021 978 1083 z m 263 1361 l 453 1167 l 628 1167 l 818 1361 l 664 1361 l 546 1282 l 538 1282 l 417 1361 z m 361 604 l 361 847 l 614 847 b 758 728 744 847 758 835 b 614 604 758 617 744 604 z "},"Ŗ":{"ha":1106,"x_min":0,"x_max":0,"o":"m 689 1083 l 69 1083 l 69 0 l 361 0 l 361 382 l 578 382 b 744 250 729 382 744 369 l 744 0 l 1050 0 l 1050 267 b 832 485 1050 406 976 469 b 1050 769 983 506 1050 590 b 689 1083 1050 1021 978 1083 z m 361 604 l 361 847 l 614 847 b 758 728 744 847 758 835 b 614 604 758 617 744 604 z m 426 -189 l 560 -189 b 428 -231 551 -222 519 -231 l 428 -294 l 467 -294 b 690 -114 642 -294 690 -260 l 690 -56 l 426 -56 z "},"S":{"ha":1114,"x_min":0,"x_max":0,"o":"m 556 219 b 347 364 369 219 347 233 l 42 364 b 564 -17 42 60 149 -17 b 1072 292 968 -17 1072 44 b 558 664 1072 510 964 585 b 371 772 411 694 371 715 b 564 864 371 854 392 864 b 760 704 739 864 760 849 l 1065 704 b 564 1100 1065 1021 963 1100 b 65 775 168 1100 65 1035 b 508 436 65 574 154 507 b 767 307 713 396 767 369 b 556 219 767 228 744 219 z "},"Ś":{"ha":1114,"x_min":0,"x_max":0,"o":"m 556 219 b 347 364 369 219 347 233 l 42 364 b 564 -17 42 60 149 -17 b 1072 292 968 -17 1072 44 b 558 664 1072 510 964 585 b 371 772 411 694 371 715 b 564 864 371 854 392 864 b 760 704 739 864 760 849 l 1065 704 b 564 1100 1065 1021 963 1100 b 65 775 168 1100 65 1035 b 508 436 65 574 154 507 b 767 307 713 396 767 369 b 556 219 767 228 744 219 z m 467 1167 l 633 1167 l 842 1363 l 564 1363 z "},"Š":{"ha":1114,"x_min":0,"x_max":0,"o":"m 556 219 b 347 364 369 219 347 233 l 42 364 b 564 -17 42 60 149 -17 b 1072 292 968 -17 1072 44 b 558 664 1072 510 964 585 b 371 772 411 694 371 715 b 564 864 371 854 392 864 b 760 704 739 864 760 849 l 1065 704 b 564 1100 1065 1021 963 1100 b 65 775 168 1100 65 1035 b 508 436 65 574 154 507 b 767 307 713 396 767 369 b 556 219 767 228 744 219 z m 285 1361 l 475 1167 l 650 1167 l 840 1361 l 686 1361 l 568 1282 l 560 1282 l 439 1361 z "},"Ş":{"ha":1114,"x_min":0,"x_max":0,"o":"m 556 219 b 347 364 369 219 347 233 l 42 364 b 524 -17 42 69 142 -11 l 449 -50 l 449 -114 b 583 -165 558 -114 583 -126 l 583 -179 b 449 -231 583 -218 558 -231 l 449 -294 l 488 -294 b 711 -172 663 -294 711 -262 b 572 -54 711 -103 679 -65 l 594 -17 b 1072 292 974 -14 1072 51 b 558 664 1072 510 964 585 b 371 772 411 694 371 715 b 564 864 371 854 392 864 b 760 704 739 864 760 849 l 1065 704 b 564 1100 1065 1021 963 1100 b 65 775 168 1100 65 1035 b 508 436 65 574 154 507 b 767 307 713 396 767 369 b 556 219 767 228 744 219 z "},"ẞ":{"ha":1179,"x_min":0,"x_max":0,"o":"m 1057 1083 l 83 1083 l 83 0 l 361 0 l 361 861 l 753 861 l 507 660 l 507 438 l 688 438 b 804 343 786 438 804 421 b 688 250 804 267 786 250 l 558 250 l 558 0 l 804 0 b 1096 285 1050 0 1096 44 l 1096 313 b 801 581 1096 529 1049 574 l 1057 828 z "},"T":{"ha":972,"x_min":0,"x_max":0,"o":"m 339 0 l 631 0 l 631 833 l 965 833 l 965 1083 l 7 1083 l 7 833 l 339 833 z "},"Ť":{"ha":972,"x_min":0,"x_max":0,"o":"m 339 0 l 631 0 l 631 833 l 965 833 l 965 1083 l 7 1083 l 7 833 l 339 833 z m 206 1361 l 396 1167 l 571 1167 l 761 1361 l 607 1361 l 489 1282 l 481 1282 l 360 1361 z "},"Ţ":{"ha":972,"x_min":0,"x_max":0,"o":"m 339 0 l 482 0 l 369 -50 l 369 -114 b 504 -165 479 -114 504 -126 l 504 -179 b 369 -231 504 -218 479 -231 l 369 -294 l 408 -294 b 632 -172 583 -294 632 -262 b 493 -54 632 -103 600 -65 l 525 0 l 631 0 l 631 833 l 965 833 l 965 1083 l 7 1083 l 7 833 l 339 833 z "},"U":{"ha":1072,"x_min":0,"x_max":0,"o":"m 1017 444 l 1017 1083 l 725 1083 l 725 444 b 536 219 725 242 706 219 b 347 444 367 219 347 242 l 347 1083 l 56 1083 l 56 444 b 536 -17 56 75 151 -17 b 1017 444 921 -17 1017 75 z "},"Ú":{"ha":1072,"x_min":0,"x_max":0,"o":"m 1017 444 l 1017 1083 l 725 1083 l 725 444 b 536 219 725 242 706 219 b 347 444 367 219 347 242 l 347 1083 l 56 1083 l 56 444 b 536 -17 56 75 151 -17 b 1017 444 921 -17 1017 75 z m 439 1167 l 606 1167 l 814 1363 l 536 1363 z "},"Û":{"ha":1072,"x_min":0,"x_max":0,"o":"m 1017 444 l 1017 1083 l 725 1083 l 725 444 b 536 219 725 242 706 219 b 347 444 367 219 347 242 l 347 1083 l 56 1083 l 56 444 b 536 -17 56 75 151 -17 b 1017 444 921 -17 1017 75 z m 257 1167 l 411 1167 l 532 1246 l 540 1246 l 658 1167 l 813 1167 l 622 1361 l 447 1361 z "},"Ü":{"ha":1072,"x_min":0,"x_max":0,"o":"m 1017 444 l 1017 1083 l 725 1083 l 725 444 b 536 219 725 242 706 219 b 347 444 367 219 347 242 l 347 1083 l 56 1083 l 56 444 b 536 -17 56 75 151 -17 b 1017 444 921 -17 1017 75 z m 272 1167 l 494 1167 l 494 1361 l 272 1361 z m 578 1167 l 800 1167 l 800 1361 l 578 1361 z "},"Ù":{"ha":1072,"x_min":0,"x_max":0,"o":"m 1017 444 l 1017 1083 l 725 1083 l 725 444 b 536 219 725 242 706 219 b 347 444 367 219 347 242 l 347 1083 l 56 1083 l 56 444 b 536 -17 56 75 151 -17 b 1017 444 921 -17 1017 75 z m 258 1363 l 467 1167 l 633 1167 l 536 1363 z "},"Ű":{"ha":1072,"x_min":0,"x_max":0,"o":"m 1017 444 l 1017 1083 l 725 1083 l 725 444 b 536 219 725 242 706 219 b 347 444 367 219 347 242 l 347 1083 l 56 1083 l 56 444 b 536 -17 56 75 151 -17 b 1017 444 921 -17 1017 75 z m 338 1167 l 490 1167 l 643 1363 l 435 1363 z m 601 1167 l 754 1167 l 907 1363 l 699 1363 z "},"Ū":{"ha":1072,"x_min":0,"x_max":0,"o":"m 1017 444 l 1017 1083 l 725 1083 l 725 444 b 536 219 725 242 706 219 b 347 444 367 219 347 242 l 347 1083 l 56 1083 l 56 444 b 536 -17 56 75 151 -17 b 1017 444 921 -17 1017 75 z m 314 1181 l 758 1181 l 758 1306 l 314 1306 z "},"Ų":{"ha":1072,"x_min":0,"x_max":0,"o":"m 1017 444 l 1017 1083 l 725 1083 l 725 444 b 536 219 725 242 706 219 b 347 444 367 219 347 242 l 347 1083 l 56 1083 l 56 444 b 536 -17 56 75 151 -17 b 668 -12 585 -17 628 -15 b 503 -187 547 -85 503 -132 b 635 -294 503 -265 543 -294 b 724 -278 682 -294 703 -290 l 724 -214 b 631 -179 656 -231 631 -221 b 750 -1 631 -135 664 -86 b 1017 444 958 38 1017 156 z "},"Ů":{"ha":1072,"x_min":0,"x_max":0,"o":"m 1017 444 l 1017 1083 l 725 1083 l 725 444 b 536 219 725 242 706 219 b 347 444 367 219 347 242 l 347 1083 l 56 1083 l 56 444 b 536 -17 56 75 151 -17 b 1017 444 921 -17 1017 75 z m 376 1274 b 538 1167 376 1192 419 1167 b 696 1274 653 1167 696 1192 b 538 1378 696 1356 653 1378 b 376 1274 419 1378 376 1356 z m 474 1272 b 536 1328 474 1319 482 1328 b 599 1272 590 1328 599 1319 b 536 1217 599 1225 590 1217 b 474 1272 482 1217 474 1225 z "},"V":{"ha":1156,"x_min":0,"x_max":0,"o":"m 1149 1083 l 842 1083 l 578 278 l 569 278 l 326 1083 l 7 1083 l 333 0 l 794 0 z "},"W":{"ha":1672,"x_min":0,"x_max":0,"o":"m 1086 1083 l 582 1083 l 472 250 l 461 250 l 304 1083 l 7 1083 l 218 0 l 714 0 l 825 833 l 836 833 l 968 0 l 1460 0 l 1665 1083 l 1382 1083 l 1229 250 l 1218 250 z "},"Ẃ":{"ha":1672,"x_min":0,"x_max":0,"o":"m 1086 1083 l 582 1083 l 472 250 l 461 250 l 304 1083 l 7 1083 l 218 0 l 714 0 l 825 833 l 836 833 l 968 0 l 1460 0 l 1665 1083 l 1382 1083 l 1229 250 l 1218 250 z m 732 1167 l 899 1167 l 1107 1363 l 829 1363 z "},"Ŵ":{"ha":1672,"x_min":0,"x_max":0,"o":"m 1086 1083 l 582 1083 l 472 250 l 461 250 l 304 1083 l 7 1083 l 218 0 l 714 0 l 825 833 l 836 833 l 968 0 l 1460 0 l 1665 1083 l 1382 1083 l 1229 250 l 1218 250 z m 550 1167 l 704 1167 l 825 1246 l 833 1246 l 951 1167 l 1106 1167 l 915 1361 l 740 1361 z "},"Ẅ":{"ha":1672,"x_min":0,"x_max":0,"o":"m 1086 1083 l 582 1083 l 472 250 l 461 250 l 304 1083 l 7 1083 l 218 0 l 714 0 l 825 833 l 836 833 l 968 0 l 1460 0 l 1665 1083 l 1382 1083 l 1229 250 l 1218 250 z m 565 1167 l 788 1167 l 788 1361 l 565 1361 z m 871 1167 l 1093 1167 l 1093 1361 l 871 1361 z "},"Ẁ":{"ha":1672,"x_min":0,"x_max":0,"o":"m 1086 1083 l 582 1083 l 472 250 l 461 250 l 304 1083 l 7 1083 l 218 0 l 714 0 l 825 833 l 836 833 l 968 0 l 1460 0 l 1665 1083 l 1382 1083 l 1229 250 l 1218 250 z m 551 1363 l 760 1167 l 926 1167 l 829 1363 z "},"X":{"ha":1136,"x_min":0,"x_max":0,"o":"m 375 1083 l 33 1083 l 313 544 l 7 0 l 339 0 l 544 397 l 556 397 l 772 0 l 1129 0 l 801 544 l 1103 1083 l 768 1083 l 569 692 l 561 692 z "},"Y":{"ha":1060,"x_min":0,"x_max":0,"o":"m 1053 1083 l 743 1083 l 546 638 l 538 638 l 335 1083 l 7 1083 l 343 417 l 394 417 l 394 0 l 686 0 l 686 417 l 728 417 z "},"Ý":{"ha":1060,"x_min":0,"x_max":0,"o":"m 1053 1083 l 743 1083 l 546 638 l 538 638 l 335 1083 l 7 1083 l 343 417 l 394 417 l 394 0 l 686 0 l 686 417 l 728 417 z m 444 1167 l 611 1167 l 819 1363 l 542 1363 z "},"Ŷ":{"ha":1060,"x_min":0,"x_max":0,"o":"m 1053 1083 l 743 1083 l 546 638 l 538 638 l 335 1083 l 7 1083 l 343 417 l 394 417 l 394 0 l 686 0 l 686 417 l 728 417 z m 263 1167 l 417 1167 l 538 1246 l 546 1246 l 664 1167 l 818 1167 l 628 1361 l 453 1361 z "},"Ÿ":{"ha":1060,"x_min":0,"x_max":0,"o":"m 1053 1083 l 743 1083 l 546 638 l 538 638 l 335 1083 l 7 1083 l 343 417 l 394 417 l 394 0 l 686 0 l 686 417 l 728 417 z m 278 1167 l 500 1167 l 500 1361 l 278 1361 z m 583 1167 l 806 1167 l 806 1361 l 583 1361 z "},"Ỳ":{"ha":1060,"x_min":0,"x_max":0,"o":"m 1053 1083 l 743 1083 l 546 638 l 538 638 l 335 1083 l 7 1083 l 343 417 l 394 417 l 394 0 l 686 0 l 686 417 l 728 417 z m 264 1363 l 472 1167 l 639 1167 l 542 1363 z "},"Z":{"ha":1183,"x_min":0,"x_max":0,"o":"m 88 1083 l 88 833 l 674 833 l 56 268 l 56 0 l 1128 0 l 1128 250 l 451 250 l 1099 843 l 1099 1083 z "},"Ź":{"ha":1183,"x_min":0,"x_max":0,"o":"m 88 1083 l 88 833 l 674 833 l 56 268 l 56 0 l 1128 0 l 1128 250 l 451 250 l 1099 843 l 1099 1083 z m 493 1167 l 660 1167 l 868 1363 l 590 1363 z "},"Ž":{"ha":1183,"x_min":0,"x_max":0,"o":"m 88 1083 l 88 833 l 674 833 l 56 268 l 56 0 l 1128 0 l 1128 250 l 451 250 l 1099 843 l 1099 1083 z m 311 1361 l 501 1167 l 676 1167 l 867 1361 l 713 1361 l 594 1282 l 586 1282 l 465 1361 z "},"Ż":{"ha":1183,"x_min":0,"x_max":0,"o":"m 88 1083 l 88 833 l 674 833 l 56 268 l 56 0 l 1128 0 l 1128 250 l 451 250 l 1099 843 l 1099 1083 z m 451 1167 l 729 1167 l 729 1361 l 451 1361 z "},"a":{"ha":915,"x_min":0,"x_max":0,"o":"m 474 850 b 69 576 150 850 69 796 l 69 547 l 333 547 b 471 656 331 644 344 656 b 596 543 583 656 596 644 l 596 496 l 360 494 b 42 240 106 494 42 443 b 364 -17 42 26 106 -25 b 596 114 496 -15 568 25 l 596 0 l 860 0 l 860 561 b 474 850 860 792 782 850 z m 319 238 b 471 300 319 294 335 300 l 596 301 l 596 265 b 471 172 596 201 558 174 b 319 238 335 169 319 176 z "},"á":{"ha":915,"x_min":0,"x_max":0,"o":"m 474 850 b 69 576 150 850 69 796 l 69 547 l 333 547 b 471 656 331 644 344 656 b 596 543 583 656 596 644 l 596 496 l 360 494 b 42 240 106 494 42 443 b 364 -17 42 26 106 -25 b 596 114 496 -15 568 25 l 596 0 l 860 0 l 860 561 b 474 850 860 792 782 850 z m 319 238 b 471 300 319 294 335 300 l 596 301 l 596 265 b 471 172 596 201 558 174 b 319 238 335 169 319 176 z m 374 917 l 540 917 l 749 1113 l 471 1113 z "},"ă":{"ha":915,"x_min":0,"x_max":0,"o":"m 474 850 b 69 576 150 850 69 796 l 69 547 l 333 547 b 471 656 331 644 344 656 b 596 543 583 656 596 644 l 596 496 l 360 494 b 42 240 106 494 42 443 b 364 -17 42 26 106 -25 b 596 114 496 -15 568 25 l 596 0 l 860 0 l 860 561 b 474 850 860 792 782 850 z m 263 1111 b 472 914 263 944 296 914 b 679 1111 647 914 679 944 l 554 1111 b 472 969 554 992 542 969 b 388 1110 400 969 388 992 z m 319 238 b 471 300 319 294 335 300 l 596 301 l 596 265 b 471 172 596 201 558 174 b 319 238 335 169 319 176 z "},"â":{"ha":915,"x_min":0,"x_max":0,"o":"m 474 850 b 69 576 150 850 69 796 l 69 547 l 333 547 b 471 656 331 644 344 656 b 596 543 583 656 596 644 l 596 496 l 360 494 b 42 240 106 494 42 443 b 364 -17 42 26 106 -25 b 596 114 496 -15 568 25 l 596 0 l 860 0 l 860 561 b 474 850 860 792 782 850 z m 192 917 l 346 917 l 467 996 l 475 996 l 593 917 l 747 917 l 557 1111 l 382 1111 z m 319 238 b 471 300 319 294 335 300 l 596 301 l 596 265 b 471 172 596 201 558 174 b 319 238 335 169 319 176 z "},"ä":{"ha":915,"x_min":0,"x_max":0,"o":"m 474 850 b 69 576 150 850 69 796 l 69 547 l 333 547 b 471 656 331 644 344 656 b 596 543 583 656 596 644 l 596 496 l 360 494 b 42 240 106 494 42 443 b 364 -17 42 26 106 -25 b 596 114 496 -15 568 25 l 596 0 l 860 0 l 860 561 b 474 850 860 792 782 850 z m 207 917 l 429 917 l 429 1111 l 207 1111 z m 319 238 b 471 300 319 294 335 300 l 596 301 l 596 265 b 471 172 596 201 558 174 b 319 238 335 169 319 176 z m 513 917 l 735 917 l 735 1111 l 513 1111 z "},"à":{"ha":915,"x_min":0,"x_max":0,"o":"m 474 850 b 69 576 150 850 69 796 l 69 547 l 333 547 b 471 656 331 644 344 656 b 596 543 583 656 596 644 l 596 496 l 360 494 b 42 240 106 494 42 443 b 364 -17 42 26 106 -25 b 596 114 496 -15 568 25 l 596 0 l 860 0 l 860 561 b 474 850 860 792 782 850 z m 193 1113 l 401 917 l 568 917 l 471 1113 z m 319 238 b 471 300 319 294 335 300 l 596 301 l 596 265 b 471 172 596 201 558 174 b 319 238 335 169 319 176 z "},"ā":{"ha":915,"x_min":0,"x_max":0,"o":"m 474 850 b 69 576 150 850 69 796 l 69 547 l 333 547 b 471 656 331 644 344 656 b 596 543 583 656 596 644 l 596 496 l 360 494 b 42 240 106 494 42 443 b 364 -17 42 26 106 -25 b 596 114 496 -15 568 25 l 596 0 l 860 0 l 860 561 b 474 850 860 792 782 850 z m 249 931 l 693 931 l 693 1056 l 249 1056 z m 319 238 b 471 300 319 294 335 300 l 596 301 l 596 265 b 471 172 596 201 558 174 b 319 238 335 169 319 176 z "},"ą":{"ha":915,"x_min":0,"x_max":0,"o":"m 474 850 b 69 576 150 850 69 796 l 69 547 l 333 547 b 471 656 331 644 344 656 b 596 543 583 656 596 644 l 596 496 l 360 494 b 42 240 106 494 42 443 b 364 -17 42 26 106 -25 b 596 114 496 -15 568 25 l 596 0 l 796 0 b 611 -187 661 -79 611 -129 b 743 -294 611 -265 651 -294 b 832 -278 790 -294 811 -290 l 832 -214 b 739 -179 764 -231 739 -221 b 860 0 739 -135 772 -86 l 860 561 b 474 850 860 792 782 850 z m 319 238 b 471 300 319 294 335 300 l 596 301 l 596 265 b 471 172 596 201 558 174 b 319 238 335 169 319 176 z "},"å":{"ha":915,"x_min":0,"x_max":0,"o":"m 474 850 b 69 576 150 850 69 796 l 69 547 l 333 547 b 471 656 331 644 344 656 b 596 543 583 656 596 644 l 596 496 l 360 494 b 42 240 106 494 42 443 b 364 -17 42 26 106 -25 b 596 114 496 -15 568 25 l 596 0 l 860 0 l 860 561 b 474 850 860 792 782 850 z m 311 1024 b 472 917 311 942 354 917 b 631 1024 588 917 631 942 b 472 1128 631 1106 588 1128 b 311 1024 354 1128 311 1106 z m 319 238 b 471 300 319 294 335 300 l 596 301 l 596 265 b 471 172 596 201 558 174 b 319 238 335 169 319 176 z m 408 1022 b 471 1078 408 1069 417 1078 b 533 1022 525 1078 533 1069 b 471 967 533 975 525 967 b 408 1022 417 967 408 975 z "},"ã":{"ha":915,"x_min":0,"x_max":0,"o":"m 474 850 b 69 576 150 850 69 796 l 69 547 l 333 547 b 471 656 331 644 344 656 b 596 543 583 656 596 644 l 596 496 l 360 494 b 42 240 106 494 42 443 b 364 -17 42 26 106 -25 b 596 114 496 -15 568 25 l 596 0 l 860 0 l 860 561 b 474 850 860 792 782 850 z m 207 938 l 304 938 b 368 994 315 979 332 994 b 579 915 432 994 454 915 b 763 1106 713 915 763 967 l 665 1106 b 601 1049 654 1064 638 1049 b 390 1128 538 1049 515 1128 b 207 938 257 1128 207 1076 z m 319 238 b 471 300 319 294 335 300 l 596 301 l 596 265 b 471 172 596 201 558 174 b 319 238 335 169 319 176 z "},"æ":{"ha":1482,"x_min":0,"x_max":0,"o":"m 474 850 b 69 576 150 850 69 796 l 69 547 l 333 547 b 471 656 331 644 346 656 b 596 543 582 656 596 644 l 596 496 l 360 494 b 42 240 106 494 42 443 b 364 -17 42 26 106 -25 b 678 167 561 -15 664 40 b 1017 -17 722 39 829 -17 b 1433 265 1347 -17 1433 40 l 1156 265 b 1018 178 1156 196 1125 178 b 872 328 908 178 879 194 l 1440 328 l 1440 457 b 1017 850 1440 771 1349 850 b 779 751 899 850 822 819 b 474 850 724 819 625 850 z m 319 238 b 471 300 319 294 336 300 l 596 301 l 596 238 b 471 172 596 171 553 174 b 319 238 336 169 319 178 z m 874 522 b 1018 656 882 640 913 656 b 1163 522 1144 656 1161 643 z "},"b":{"ha":964,"x_min":0,"x_max":0,"o":"m 69 1111 l 69 0 l 326 0 l 326 174 b 597 -17 350 42 435 -17 b 922 417 857 -17 922 69 b 611 850 922 764 860 850 b 333 721 453 850 364 811 l 333 1111 z m 333 294 l 333 469 b 501 628 333 581 383 628 b 644 417 631 628 644 607 b 486 206 644 226 629 206 b 333 294 390 206 333 232 z "},"c":{"ha":940,"x_min":0,"x_max":0,"o":"m 478 -17 b 899 353 807 -17 892 57 l 621 353 b 478 192 614 208 600 192 b 319 417 335 192 319 214 b 478 642 319 619 335 642 b 621 483 601 642 615 626 l 899 483 b 478 850 890 776 806 850 b 42 417 129 850 42 764 b 478 -17 42 69 129 -17 z "},"ć":{"ha":940,"x_min":0,"x_max":0,"o":"m 478 -17 b 899 353 807 -17 892 57 l 621 353 b 478 192 614 208 600 192 b 319 417 335 192 319 214 b 478 642 319 619 335 642 b 621 483 601 642 615 626 l 899 483 b 478 850 890 776 806 850 b 42 417 129 850 42 764 b 478 -17 42 69 129 -17 z m 381 917 l 547 917 l 756 1113 l 478 1113 z "},"č":{"ha":940,"x_min":0,"x_max":0,"o":"m 478 -17 b 899 353 807 -17 892 57 l 621 353 b 478 192 614 208 600 192 b 319 417 335 192 319 214 b 478 642 319 619 335 642 b 621 483 601 642 615 626 l 899 483 b 478 850 890 776 806 850 b 42 417 129 850 42 764 b 478 -17 42 69 129 -17 z m 199 1111 l 389 917 l 564 917 l 754 1111 l 600 1111 l 482 1032 l 474 1032 l 353 1111 z "},"ç":{"ha":940,"x_min":0,"x_max":0,"o":"m 625 -172 b 486 -54 625 -103 593 -65 l 508 -17 b 899 353 813 -11 892 67 l 621 353 b 478 192 614 208 600 192 b 319 417 335 192 319 214 b 478 642 319 619 335 642 b 621 483 601 642 615 626 l 899 483 b 478 850 890 776 806 850 b 42 417 129 850 42 764 b 438 -17 42 83 122 -10 l 363 -50 l 363 -114 b 497 -165 472 -114 497 -126 l 497 -179 b 363 -231 497 -218 472 -231 l 363 -294 l 401 -294 b 625 -172 576 -294 625 -262 z "},"d":{"ha":964,"x_min":0,"x_max":0,"o":"m 894 1111 l 631 1111 l 631 721 b 353 850 600 811 511 850 b 42 417 104 850 42 764 b 367 -17 42 69 107 -17 b 638 174 529 -17 614 42 l 638 0 l 894 0 z m 319 417 b 463 628 319 607 333 628 b 631 469 581 628 631 581 l 631 294 b 478 206 631 232 574 206 b 319 417 335 206 319 226 z "},"ð":{"ha":928,"x_min":0,"x_max":0,"o":"m 624 1111 l 360 1111 b 454 1013 396 1078 426 1044 l 335 1013 l 335 888 l 542 888 b 610 688 576 824 599 758 b 344 833 572 789 490 833 b 42 476 103 833 42 763 l 42 357 b 471 -17 42 58 128 -17 b 886 424 803 -17 886 71 b 774 904 886 610 851 764 l 849 904 l 849 1029 l 692 1029 b 624 1111 671 1057 649 1083 z m 306 363 l 306 468 b 465 603 306 589 321 603 b 622 438 574 603 621 553 l 622 363 b 465 213 622 228 607 213 b 306 363 321 213 306 228 z "},"ď":{"ha":1415,"x_min":0,"x_max":0,"o":"m 908 1111 l 644 1111 l 644 721 b 367 850 614 811 525 850 b 56 417 118 850 56 764 b 381 -17 56 69 121 -17 b 651 174 543 -17 628 42 l 651 0 l 908 0 z m 333 417 b 476 628 333 607 347 628 b 644 469 594 628 644 581 l 644 294 b 492 206 644 232 588 206 b 333 417 349 206 333 226 z m 1096 721 l 1221 721 l 1332 1111 l 1096 1111 z "},"đ":{"ha":964,"x_min":0,"x_max":0,"o":"m 894 1111 l 631 1111 l 631 1054 l 581 1054 l 581 929 l 631 929 l 631 721 b 353 850 600 811 511 850 b 42 417 104 850 42 764 b 367 -17 42 69 107 -17 b 638 174 529 -17 614 42 l 638 0 l 894 0 l 894 929 l 1025 929 l 1025 1054 l 894 1054 z m 319 417 b 463 628 319 607 333 628 b 631 469 581 628 631 581 l 631 294 b 478 206 631 232 574 206 b 319 417 335 206 319 226 z "},"e":{"ha":931,"x_min":0,"x_max":0,"o":"m 882 265 l 604 265 b 467 178 604 196 576 178 b 321 342 353 178 326 196 l 889 342 l 889 471 b 465 850 882 774 794 850 b 42 417 126 850 42 764 b 465 -17 42 69 126 -17 b 882 265 793 -17 876 40 z m 322 536 b 467 656 332 642 364 656 b 611 536 589 656 608 643 z "},"é":{"ha":931,"x_min":0,"x_max":0,"o":"m 882 265 l 604 265 b 467 178 604 196 576 178 b 321 342 353 178 326 196 l 889 342 l 889 471 b 465 850 882 774 794 850 b 42 417 126 850 42 764 b 465 -17 42 69 126 -17 b 882 265 793 -17 876 40 z m 322 536 b 467 656 332 642 364 656 b 611 536 589 656 608 643 z m 369 917 l 536 917 l 744 1113 l 467 1113 z "},"ě":{"ha":931,"x_min":0,"x_max":0,"o":"m 882 265 l 604 265 b 467 178 604 196 576 178 b 321 342 353 178 326 196 l 889 342 l 889 471 b 465 850 882 774 794 850 b 42 417 126 850 42 764 b 465 -17 42 69 126 -17 b 882 265 793 -17 876 40 z m 188 1111 l 378 917 l 553 917 l 743 1111 l 589 1111 l 471 1032 l 463 1032 l 342 1111 z m 322 536 b 467 656 332 642 364 656 b 611 536 589 656 608 643 z "},"ê":{"ha":931,"x_min":0,"x_max":0,"o":"m 882 265 l 604 265 b 467 178 604 196 576 178 b 321 342 353 178 326 196 l 889 342 l 889 471 b 465 850 882 774 794 850 b 42 417 126 850 42 764 b 465 -17 42 69 126 -17 b 882 265 793 -17 876 40 z m 188 917 l 342 917 l 463 996 l 471 996 l 589 917 l 743 917 l 553 1111 l 378 1111 z m 322 536 b 467 656 332 642 364 656 b 611 536 589 656 608 643 z "},"ë":{"ha":931,"x_min":0,"x_max":0,"o":"m 882 265 l 604 265 b 467 178 604 196 576 178 b 321 342 353 178 326 196 l 889 342 l 889 471 b 465 850 882 774 794 850 b 42 417 126 850 42 764 b 465 -17 42 69 126 -17 b 882 265 793 -17 876 40 z m 203 917 l 425 917 l 425 1111 l 203 1111 z m 322 536 b 467 656 332 642 364 656 b 611 536 589 656 608 643 z m 508 917 l 731 917 l 731 1111 l 508 1111 z "},"ė":{"ha":931,"x_min":0,"x_max":0,"o":"m 882 265 l 604 265 b 467 178 604 196 576 178 b 321 342 353 178 326 196 l 889 342 l 889 471 b 465 850 882 774 794 850 b 42 417 126 850 42 764 b 465 -17 42 69 126 -17 b 882 265 793 -17 876 40 z m 322 536 b 467 656 332 642 364 656 b 611 536 589 656 608 643 z m 328 917 l 606 917 l 606 1111 l 328 1111 z "},"è":{"ha":931,"x_min":0,"x_max":0,"o":"m 882 265 l 604 265 b 467 178 604 196 576 178 b 321 342 353 178 326 196 l 889 342 l 889 471 b 465 850 882 774 794 850 b 42 417 126 850 42 764 b 465 -17 42 69 126 -17 b 882 265 793 -17 876 40 z m 189 1113 l 397 917 l 564 917 l 467 1113 z m 322 536 b 467 656 332 642 364 656 b 611 536 589 656 608 643 z "},"ē":{"ha":931,"x_min":0,"x_max":0,"o":"m 882 265 l 604 265 b 467 178 604 196 576 178 b 321 342 353 178 326 196 l 889 342 l 889 471 b 465 850 882 774 794 850 b 42 417 126 850 42 764 b 465 -17 42 69 126 -17 b 882 265 793 -17 876 40 z m 244 931 l 689 931 l 689 1056 l 244 1056 z m 322 536 b 467 656 332 642 364 656 b 611 536 589 656 608 643 z "},"ę":{"ha":931,"x_min":0,"x_max":0,"o":"m 882 265 l 604 265 b 467 178 604 196 576 178 b 321 342 353 178 326 196 l 889 342 l 889 471 b 465 850 882 774 794 850 b 42 417 126 850 42 764 b 465 -17 42 69 126 -17 b 604 -12 517 -17 564 -15 b 439 -187 483 -85 439 -132 b 571 -294 439 -265 479 -294 b 660 -278 618 -294 639 -290 l 660 -214 b 567 -179 592 -231 567 -221 b 686 -1 567 -135 600 -86 b 882 265 833 28 878 103 z m 322 536 b 467 656 332 642 364 656 b 611 536 589 656 608 643 z "},"f":{"ha":646,"x_min":0,"x_max":0,"o":"m 471 917 l 639 917 l 639 1111 l 458 1111 b 125 833 193 1111 125 1056 l 42 833 l 42 611 l 125 611 l 125 0 l 389 0 l 389 611 l 611 611 l 611 833 l 389 833 l 389 842 b 471 917 389 910 397 917 z "},"g":{"ha":950,"x_min":0,"x_max":0,"o":"m 453 -294 b 881 -53 794 -294 881 -246 l 881 833 l 624 833 l 624 676 b 353 850 600 797 515 850 b 42 442 104 850 42 768 b 339 32 42 114 101 32 b 617 197 503 32 590 82 l 617 -14 b 453 -89 617 -82 600 -89 b 317 -14 344 -89 317 -74 l 67 -14 b 453 -294 67 -239 144 -294 z m 299 442 b 443 628 299 610 313 628 b 610 468 558 628 610 581 l 610 344 b 457 254 610 285 556 254 b 299 442 314 254 299 272 z "},"ģ":{"ha":950,"x_min":0,"x_max":0,"o":"m 453 -294 b 881 -53 794 -294 881 -246 l 881 833 l 624 833 l 624 676 b 353 850 600 797 515 850 b 42 442 104 850 42 768 b 339 32 42 114 101 32 b 617 197 503 32 590 82 l 617 -14 b 453 -89 617 -82 600 -89 b 317 -14 344 -89 317 -74 l 67 -14 b 453 -294 67 -239 144 -294 z m 299 442 b 443 628 299 610 313 628 b 610 468 558 628 610 581 l 610 344 b 457 254 610 285 556 254 b 299 442 314 254 299 272 z m 332 889 l 596 889 l 596 1022 l 463 1022 b 594 1064 471 1056 503 1064 l 594 1128 l 556 1128 b 332 947 381 1128 332 1093 z "},"h":{"ha":915,"x_min":0,"x_max":0,"o":"m 69 1111 l 69 0 l 333 0 l 333 463 b 481 628 333 578 378 628 b 596 476 585 628 596 613 l 596 0 l 860 0 l 858 539 b 585 850 858 788 801 850 b 333 701 440 850 360 804 l 333 1111 z "},"i":{"ha":417,"x_min":0,"x_max":0,"o":"m 76 833 l 76 0 l 340 0 l 340 833 z m 69 917 l 347 917 l 347 1111 l 69 1111 z "},"ı":{"ha":403,"x_min":0,"x_max":0,"o":"m 69 833 l 69 0 l 333 0 l 333 833 z "},"í":{"ha":403,"x_min":0,"x_max":0,"o":"m 69 833 l 69 0 l 333 0 l 333 833 z m 104 917 l 271 917 l 479 1113 l 201 1113 z "},"î":{"ha":403,"x_min":0,"x_max":0,"o":"m 69 833 l 69 0 l 333 0 l 333 833 z m -78 917 l 76 917 l 197 996 l 206 996 l 324 917 l 478 917 l 288 1111 l 113 1111 z "},"ï":{"ha":403,"x_min":0,"x_max":0,"o":"m 69 833 l 69 0 l 333 0 l 333 833 z m -62 917 l 160 917 l 160 1111 l -62 1111 z m 243 917 l 465 917 l 465 1111 l 243 1111 z "},"ì":{"ha":403,"x_min":0,"x_max":0,"o":"m 69 833 l 69 0 l 333 0 l 333 833 z m -76 1113 l 132 917 l 299 917 l 201 1113 z "},"ĳ":{"ha":842,"x_min":0,"x_max":0,"o":"m 76 833 l 76 0 l 340 0 l 340 833 z m 69 917 l 347 917 l 347 1111 l 69 1111 z m 406 -278 l 433 -278 b 765 3 699 -278 765 -222 l 765 833 l 501 833 l 501 43 b 406 -42 501 -28 486 -42 z m 494 917 l 772 917 l 772 1111 l 494 1111 z "},"ī":{"ha":403,"x_min":0,"x_max":0,"o":"m 69 833 l 69 0 l 333 0 l 333 833 z m -21 931 l 424 931 l 424 1056 l -21 1056 z "},"į":{"ha":417,"x_min":0,"x_max":0,"o":"m 76 833 l 76 0 l 276 0 b 92 -187 142 -79 92 -129 b 224 -294 92 -265 132 -294 b 313 -278 271 -294 292 -290 l 313 -214 b 219 -179 244 -231 219 -221 b 340 0 219 -135 253 -86 l 340 833 z m 69 917 l 347 917 l 347 1111 l 69 1111 z "},"j":{"ha":443,"x_min":0,"x_max":0,"o":"m 7 -42 l 7 -278 l 35 -278 b 367 3 300 -278 367 -222 l 367 833 l 103 833 l 103 43 b 7 -42 103 -28 88 -42 z m 96 917 l 374 917 l 374 1111 l 96 1111 z "},"ȷ":{"ha":499,"x_min":0,"x_max":0,"o":"m 69 -42 l 69 -278 l 97 -278 b 429 3 363 -278 429 -222 l 429 833 l 165 833 l 165 43 b 69 -42 165 -28 150 -42 z "},"k":{"ha":918,"x_min":0,"x_max":0,"o":"m 69 0 l 333 0 l 333 229 l 415 300 l 603 0 l 901 0 l 606 457 l 911 833 l 589 833 l 333 518 l 333 1111 l 69 1111 z "},"ķ":{"ha":918,"x_min":0,"x_max":0,"o":"m 69 0 l 333 0 l 333 229 l 415 300 l 603 0 l 901 0 l 606 457 l 911 833 l 589 833 l 333 518 l 333 1111 l 69 1111 z m 358 -189 l 492 -189 b 360 -231 483 -222 451 -231 l 360 -294 l 399 -294 b 622 -114 574 -294 622 -260 l 622 -56 l 358 -56 z "},"l":{"ha":485,"x_min":0,"x_max":0,"o":"m 443 236 b 333 307 344 236 333 243 l 333 1111 l 69 1111 l 69 228 b 292 0 68 46 113 0 l 443 0 z "},"ĺ":{"ha":485,"x_min":0,"x_max":0,"o":"m 443 236 b 333 307 344 236 333 243 l 333 1111 l 69 1111 l 69 228 b 292 0 68 46 113 0 l 443 0 z m 107 1194 l 274 1194 l 482 1390 l 204 1390 z "},"ľ":{"ha":778,"x_min":0,"x_max":0,"o":"m 443 236 b 333 307 344 236 333 243 l 333 1111 l 69 1111 l 69 228 b 292 0 68 46 113 0 l 443 0 z m 458 721 l 583 721 l 694 1111 l 458 1111 z "},"ļ":{"ha":485,"x_min":0,"x_max":0,"o":"m 443 236 b 333 307 344 236 333 243 l 333 1111 l 69 1111 l 69 228 b 292 0 68 46 113 0 l 443 0 z m 147 -189 l 281 -189 b 149 -231 272 -222 240 -231 l 149 -294 l 188 -294 b 411 -114 363 -294 411 -260 l 411 -56 l 147 -56 z "},"ł":{"ha":661,"x_min":0,"x_max":0,"o":"m 564 236 b 454 307 465 236 454 243 l 454 521 l 551 546 l 551 671 l 454 646 l 454 1111 l 190 1111 l 190 576 l 107 554 l 107 429 l 190 451 l 190 228 b 413 0 189 46 233 0 l 564 0 z "},"m":{"ha":1417,"x_min":0,"x_max":0,"o":"m 69 833 l 69 0 l 333 0 l 333 458 b 461 628 333 576 372 628 b 585 449 572 628 585 610 l 585 0 l 846 0 l 846 458 b 975 628 844 576 883 628 b 1097 449 1085 628 1097 610 l 1097 0 l 1361 0 l 1361 483 b 1043 850 1361 776 1297 850 b 817 679 913 850 842 797 b 529 850 794 813 719 850 b 333 738 425 850 361 815 l 333 833 z "},"n":{"ha":915,"x_min":0,"x_max":0,"o":"m 69 833 l 69 0 l 333 0 l 335 472 b 479 628 335 581 378 628 b 596 472 585 628 596 613 l 596 0 l 860 0 l 858 539 b 585 850 858 788 804 850 b 333 703 439 850 360 804 l 333 833 z "},"ń":{"ha":915,"x_min":0,"x_max":0,"o":"m 69 833 l 69 0 l 333 0 l 335 472 b 479 628 335 581 378 628 b 596 472 585 628 596 613 l 596 0 l 860 0 l 858 539 b 585 850 858 788 804 850 b 333 703 439 850 360 804 l 333 833 z m 351 917 l 518 917 l 726 1113 l 449 1113 z "},"ň":{"ha":915,"x_min":0,"x_max":0,"o":"m 69 833 l 69 0 l 333 0 l 335 472 b 479 628 335 581 378 628 b 596 472 585 628 596 613 l 596 0 l 860 0 l 858 539 b 585 850 858 788 804 850 b 333 703 439 850 360 804 l 333 833 z m 169 1111 l 360 917 l 535 917 l 725 1111 l 571 1111 l 453 1032 l 444 1032 l 324 1111 z "},"ņ":{"ha":915,"x_min":0,"x_max":0,"o":"m 69 833 l 69 0 l 333 0 l 335 472 b 479 628 335 581 378 628 b 596 472 585 628 596 613 l 596 0 l 860 0 l 858 539 b 585 850 858 788 804 850 b 333 703 439 850 360 804 l 333 833 z m 333 -189 l 467 -189 b 335 -231 458 -222 426 -231 l 335 -294 l 374 -294 b 597 -114 549 -294 597 -260 l 597 -56 l 333 -56 z "},"ñ":{"ha":915,"x_min":0,"x_max":0,"o":"m 69 833 l 69 0 l 333 0 l 335 472 b 479 628 335 581 378 628 b 596 472 585 628 596 613 l 596 0 l 860 0 l 858 539 b 585 850 858 788 804 850 b 333 703 439 850 360 804 l 333 833 z m 185 938 l 282 938 b 346 994 293 979 310 994 b 557 915 410 994 432 915 b 740 1106 690 915 740 967 l 643 1106 b 579 1049 632 1064 615 1049 b 368 1128 515 1049 493 1128 b 185 938 235 1128 185 1076 z "},"o":{"ha":956,"x_min":0,"x_max":0,"o":"m 478 642 b 636 417 621 642 636 619 b 478 192 636 214 621 192 b 319 417 335 192 319 214 b 478 642 319 619 335 642 z m 42 417 b 478 -17 42 69 129 -17 b 914 417 826 -17 914 69 b 478 850 914 764 826 850 b 42 417 129 850 42 764 z "},"ó":{"ha":956,"x_min":0,"x_max":0,"o":"m 478 642 b 636 417 621 642 636 619 b 478 192 636 214 621 192 b 319 417 335 192 319 214 b 478 642 319 619 335 642 z m 42 417 b 478 -17 42 69 129 -17 b 914 417 826 -17 914 69 b 478 850 914 764 826 850 b 42 417 129 850 42 764 z m 381 917 l 547 917 l 756 1113 l 478 1113 z "},"ô":{"ha":956,"x_min":0,"x_max":0,"o":"m 478 642 b 636 417 621 642 636 619 b 478 192 636 214 621 192 b 319 417 335 192 319 214 b 478 642 319 619 335 642 z m 42 417 b 478 -17 42 69 129 -17 b 914 417 826 -17 914 69 b 478 850 914 764 826 850 b 42 417 129 850 42 764 z m 199 917 l 353 917 l 474 996 l 482 996 l 600 917 l 754 917 l 564 1111 l 389 1111 z "},"ö":{"ha":956,"x_min":0,"x_max":0,"o":"m 478 642 b 636 417 621 642 636 619 b 478 192 636 214 621 192 b 319 417 335 192 319 214 b 478 642 319 619 335 642 z m 42 417 b 478 -17 42 69 129 -17 b 914 417 826 -17 914 69 b 478 850 914 764 826 850 b 42 417 129 850 42 764 z m 214 917 l 436 917 l 436 1111 l 214 1111 z m 519 917 l 742 917 l 742 1111 l 519 1111 z "},"ò":{"ha":956,"x_min":0,"x_max":0,"o":"m 478 642 b 636 417 621 642 636 619 b 478 192 636 214 621 192 b 319 417 335 192 319 214 b 478 642 319 619 335 642 z m 42 417 b 478 -17 42 69 129 -17 b 914 417 826 -17 914 69 b 478 850 914 764 826 850 b 42 417 129 850 42 764 z m 200 1113 l 408 917 l 575 917 l 478 1113 z "},"ő":{"ha":956,"x_min":0,"x_max":0,"o":"m 478 642 b 636 417 621 642 636 619 b 478 192 636 214 621 192 b 319 417 335 192 319 214 b 478 642 319 619 335 642 z m 42 417 b 478 -17 42 69 129 -17 b 914 417 826 -17 914 69 b 478 850 914 764 826 850 b 42 417 129 850 42 764 z m 279 917 l 432 917 l 585 1113 l 376 1113 z m 543 917 l 696 917 l 849 1113 l 640 1113 z "},"ō":{"ha":956,"x_min":0,"x_max":0,"o":"m 478 642 b 636 417 621 642 636 619 b 478 192 636 214 621 192 b 319 417 335 192 319 214 b 478 642 319 619 335 642 z m 42 417 b 478 -17 42 69 129 -17 b 914 417 826 -17 914 69 b 478 850 914 764 826 850 b 42 417 129 850 42 764 z m 256 931 l 700 931 l 700 1056 l 256 1056 z "},"ø":{"ha":1217,"x_min":0,"x_max":0,"o":"m 582 642 b 722 592 663 642 703 635 l 426 310 b 424 417 425 339 424 374 b 582 642 424 619 439 642 z m 83 -17 l 222 -17 l 278 36 b 582 -17 344 -3 442 -17 b 1018 417 931 -17 1018 69 b 975 700 1018 543 1007 635 l 1133 850 l 994 850 l 917 776 b 582 850 850 832 744 850 b 146 417 233 850 146 764 b 207 101 146 268 161 168 z m 464 213 l 740 475 l 740 417 b 582 192 740 214 725 192 b 464 213 524 192 488 196 z "},"õ":{"ha":956,"x_min":0,"x_max":0,"o":"m 478 642 b 636 417 621 642 636 619 b 478 192 636 214 621 192 b 319 417 335 192 319 214 b 478 642 319 619 335 642 z m 42 417 b 478 -17 42 69 129 -17 b 914 417 826 -17 914 69 b 478 850 914 764 826 850 b 42 417 129 850 42 764 z m 214 938 l 311 938 b 375 994 322 979 339 994 b 586 915 439 994 461 915 b 769 1106 719 915 769 967 l 672 1106 b 608 1049 661 1064 644 1049 b 397 1128 544 1049 522 1128 b 214 938 264 1128 214 1076 z "},"œ":{"ha":1510,"x_min":0,"x_max":0,"o":"m 478 628 b 664 417 638 628 664 593 b 478 206 664 240 638 206 b 319 417 346 206 319 240 b 478 628 319 593 346 628 z m 42 417 b 478 -17 42 69 129 -17 b 749 88 613 -17 700 15 b 1044 -17 806 15 903 -17 b 1461 265 1378 -17 1461 40 l 1183 265 b 1046 178 1183 196 1153 178 b 900 328 936 178 907 194 l 1468 328 l 1468 457 b 1044 850 1468 771 1383 850 b 806 750 925 850 849 819 b 478 850 749 825 647 850 b 42 417 129 850 42 764 z m 901 522 b 1046 656 910 640 940 656 b 1190 522 1172 656 1189 643 z "},"p":{"ha":964,"x_min":0,"x_max":0,"o":"m 69 -278 l 333 -278 l 333 149 b 611 -17 360 33 447 -17 b 922 417 860 -17 922 69 b 597 850 922 764 857 850 b 326 676 435 850 350 797 l 326 833 l 69 833 z m 333 296 l 333 468 b 500 628 333 581 385 628 b 644 417 631 628 644 607 b 486 206 644 226 629 206 b 333 296 388 206 333 236 z "},"þ":{"ha":950,"x_min":0,"x_max":0,"o":"m 69 -278 l 333 -278 l 333 169 b 611 -17 365 33 451 -17 b 908 357 849 -17 908 58 l 908 476 b 597 850 908 771 857 850 b 333 658 438 850 360 785 l 333 1111 l 69 1111 z m 333 296 l 333 468 b 500 628 333 581 385 628 b 644 471 629 628 644 613 l 644 365 b 486 206 644 221 629 206 b 333 296 388 206 333 236 z "},"q":{"ha":964,"x_min":0,"x_max":0,"o":"m 894 -278 l 894 833 l 638 833 l 638 676 b 367 850 614 797 529 850 b 42 417 107 850 42 764 b 353 -17 42 69 104 -17 b 631 149 517 -17 604 33 l 631 -278 z m 319 417 b 464 628 319 607 333 628 b 631 468 579 628 631 581 l 631 296 b 478 206 631 236 576 206 b 319 417 335 206 319 226 z "},"r":{"ha":694,"x_min":0,"x_max":0,"o":"m 69 833 l 69 0 l 333 0 l 333 468 b 479 600 333 561 376 601 l 667 597 l 667 833 l 571 833 b 333 679 432 833 357 786 l 333 833 z "},"ŕ":{"ha":694,"x_min":0,"x_max":0,"o":"m 69 833 l 69 0 l 333 0 l 333 468 b 479 600 333 561 376 601 l 667 597 l 667 833 l 571 833 b 333 679 432 833 357 786 l 333 833 z m 317 917 l 483 917 l 692 1113 l 414 1113 z "},"ř":{"ha":694,"x_min":0,"x_max":0,"o":"m 69 833 l 69 0 l 333 0 l 333 468 b 479 600 333 561 376 601 l 667 597 l 667 833 l 571 833 b 333 679 432 833 357 786 l 333 833 z m 135 1111 l 325 917 l 500 917 l 690 1111 l 536 1111 l 418 1032 l 410 1032 l 289 1111 z "},"ŗ":{"ha":694,"x_min":0,"x_max":0,"o":"m 69 833 l 69 0 l 333 0 l 333 468 b 479 600 333 561 376 601 l 667 597 l 667 833 l 571 833 b 333 679 432 833 357 786 l 333 833 z m 340 -189 l 474 -189 b 342 -231 465 -222 433 -231 l 342 -294 l 381 -294 b 604 -114 556 -294 604 -260 l 604 -56 l 340 -56 z "},"s":{"ha":932,"x_min":0,"x_max":0,"o":"m 306 261 l 306 279 l 42 279 l 42 261 b 469 -17 42 39 128 -17 b 890 222 806 -17 890 31 b 454 525 890 407 803 468 b 339 590 363 539 339 551 b 469 656 339 649 351 656 b 606 568 592 656 606 647 l 606 543 l 869 543 l 869 568 b 469 850 869 793 789 850 b 61 599 143 850 61 800 b 415 331 61 439 132 386 b 613 242 574 301 613 283 b 463 178 613 185 597 178 b 306 261 321 178 306 186 z "},"ś":{"ha":932,"x_min":0,"x_max":0,"o":"m 306 261 l 306 279 l 42 279 l 42 261 b 469 -17 42 39 128 -17 b 890 222 806 -17 890 31 b 454 525 890 407 803 468 b 339 590 363 539 339 551 b 469 656 339 649 351 656 b 606 568 592 656 606 647 l 606 543 l 869 543 l 869 568 b 469 850 869 793 789 850 b 61 599 143 850 61 800 b 415 331 61 439 132 386 b 613 242 574 301 613 283 b 463 178 613 185 597 178 b 306 261 321 178 306 186 z m 372 917 l 539 917 l 747 1113 l 469 1113 z "},"š":{"ha":932,"x_min":0,"x_max":0,"o":"m 306 261 l 306 279 l 42 279 l 42 261 b 469 -17 42 39 128 -17 b 890 222 806 -17 890 31 b 454 525 890 407 803 468 b 339 590 363 539 339 551 b 469 656 339 649 351 656 b 606 568 592 656 606 647 l 606 543 l 869 543 l 869 568 b 469 850 869 793 789 850 b 61 599 143 850 61 800 b 415 331 61 439 132 386 b 613 242 574 301 613 283 b 463 178 613 185 597 178 b 306 261 321 178 306 186 z m 190 1111 l 381 917 l 556 917 l 746 1111 l 592 1111 l 474 1032 l 465 1032 l 344 1111 z "},"ş":{"ha":932,"x_min":0,"x_max":0,"o":"m 306 261 l 306 279 l 42 279 l 42 261 b 429 -17 42 47 121 -12 l 354 -50 l 354 -114 b 489 -165 464 -114 489 -126 l 489 -179 b 354 -231 489 -218 464 -231 l 354 -294 l 393 -294 b 617 -172 568 -294 617 -262 b 478 -54 617 -103 585 -65 l 500 -17 b 890 222 811 -14 890 36 b 454 525 890 407 803 468 b 339 590 363 539 339 551 b 469 656 339 649 351 656 b 606 568 592 656 606 647 l 606 543 l 869 543 l 869 568 b 469 850 869 793 789 850 b 61 599 143 850 61 800 b 415 331 61 439 132 386 b 613 242 574 301 613 283 b 463 178 613 185 597 178 b 306 261 321 178 306 186 z "},"ß":{"ha":1053,"x_min":0,"x_max":0,"o":"m 521 933 b 667 804 653 933 667 921 b 578 688 667 699 658 688 l 479 688 l 479 465 l 589 465 b 706 357 694 465 706 454 b 589 250 706 261 694 250 l 475 250 l 475 0 l 706 0 b 997 285 939 0 997 57 b 749 578 997 471 922 561 b 958 828 896 601 958 678 b 521 1128 958 1068 871 1128 b 69 831 160 1128 69 1068 l 69 0 l 347 0 l 347 832 b 521 933 347 924 364 933 z "},"t":{"ha":708,"x_min":0,"x_max":0,"o":"m 639 236 l 499 236 b 403 349 413 236 403 247 l 403 611 l 625 611 l 625 833 l 403 833 l 403 1011 l 153 1011 l 153 833 l 56 833 l 56 611 l 139 611 l 139 281 b 472 0 139 56 206 0 l 639 0 z "},"ť":{"ha":1083,"x_min":0,"x_max":0,"o":"m 653 236 l 513 236 b 417 349 426 236 417 247 l 417 611 l 639 611 l 639 833 l 417 833 l 417 1011 l 167 1011 l 167 833 l 69 833 l 69 611 l 153 611 l 153 281 b 486 0 153 56 219 0 l 653 0 z m 792 721 l 917 721 l 1028 1111 l 792 1111 z "},"ţ":{"ha":708,"x_min":0,"x_max":0,"o":"m 639 236 l 499 236 b 403 349 413 236 403 247 l 403 611 l 625 611 l 625 833 l 403 833 l 403 1011 l 153 1011 l 153 833 l 56 833 l 56 611 l 139 611 l 139 281 b 406 1 139 75 194 11 l 401 1 l 286 -50 l 286 -114 b 421 -165 396 -114 421 -126 l 421 -179 b 286 -231 421 -218 396 -231 l 286 -294 l 325 -294 b 549 -172 500 -294 549 -262 b 410 -54 549 -103 517 -65 l 443 0 l 472 0 l 639 0 z "},"u":{"ha":901,"x_min":0,"x_max":0,"o":"m 832 0 l 832 833 l 568 833 l 567 351 b 443 206 567 249 529 206 b 319 357 332 206 319 221 l 319 833 l 56 833 l 57 294 b 331 -17 57 46 111 -17 b 568 131 468 -17 543 29 l 568 0 z "},"ú":{"ha":901,"x_min":0,"x_max":0,"o":"m 832 0 l 832 833 l 568 833 l 567 351 b 443 206 567 249 529 206 b 319 357 332 206 319 221 l 319 833 l 56 833 l 57 294 b 331 -17 57 46 111 -17 b 568 131 468 -17 543 29 l 568 0 z m 347 917 l 514 917 l 722 1113 l 444 1113 z "},"û":{"ha":901,"x_min":0,"x_max":0,"o":"m 832 0 l 832 833 l 568 833 l 567 351 b 443 206 567 249 529 206 b 319 357 332 206 319 221 l 319 833 l 56 833 l 57 294 b 331 -17 57 46 111 -17 b 568 131 468 -17 543 29 l 568 0 z m 165 917 l 319 917 l 440 996 l 449 996 l 567 917 l 721 917 l 531 1111 l 356 1111 z "},"ü":{"ha":901,"x_min":0,"x_max":0,"o":"m 832 0 l 832 833 l 568 833 l 567 351 b 443 206 567 249 529 206 b 319 357 332 206 319 221 l 319 833 l 56 833 l 57 294 b 331 -17 57 46 111 -17 b 568 131 468 -17 543 29 l 568 0 z m 181 917 l 403 917 l 403 1111 l 181 1111 z m 486 917 l 708 917 l 708 1111 l 486 1111 z "},"ù":{"ha":901,"x_min":0,"x_max":0,"o":"m 832 0 l 832 833 l 568 833 l 567 351 b 443 206 567 249 529 206 b 319 357 332 206 319 221 l 319 833 l 56 833 l 57 294 b 331 -17 57 46 111 -17 b 568 131 468 -17 543 29 l 568 0 z m 167 1113 l 375 917 l 542 917 l 444 1113 z "},"ű":{"ha":901,"x_min":0,"x_max":0,"o":"m 832 0 l 832 833 l 568 833 l 567 351 b 443 206 567 249 529 206 b 319 357 332 206 319 221 l 319 833 l 56 833 l 57 294 b 331 -17 57 46 111 -17 b 568 131 468 -17 543 29 l 568 0 z m 246 917 l 399 917 l 551 1113 l 343 1113 z m 510 917 l 663 917 l 815 1113 l 607 1113 z "},"ū":{"ha":901,"x_min":0,"x_max":0,"o":"m 832 0 l 832 833 l 568 833 l 567 351 b 443 206 567 249 529 206 b 319 357 332 206 319 221 l 319 833 l 56 833 l 57 294 b 331 -17 57 46 111 -17 b 568 131 468 -17 543 29 l 568 0 z m 222 931 l 667 931 l 667 1056 l 222 1056 z "},"ų":{"ha":901,"x_min":0,"x_max":0,"o":"m 832 0 l 832 833 l 568 833 l 567 351 b 443 206 567 249 529 206 b 319 357 332 206 319 221 l 319 833 l 56 833 l 57 294 b 331 -17 57 46 111 -17 b 568 131 468 -17 543 29 l 568 0 l 768 0 b 583 -187 633 -79 583 -129 b 715 -294 583 -265 624 -294 b 804 -278 763 -294 783 -290 l 804 -214 b 711 -179 736 -231 711 -221 b 832 0 711 -135 744 -86 z "},"ů":{"ha":901,"x_min":0,"x_max":0,"o":"m 832 0 l 832 833 l 568 833 l 567 351 b 443 206 567 249 529 206 b 319 357 332 206 319 221 l 319 833 l 56 833 l 57 294 b 331 -17 57 46 111 -17 b 568 131 468 -17 543 29 l 568 0 z m 285 1024 b 446 917 285 942 328 917 b 604 1024 561 917 604 942 b 446 1128 604 1106 561 1128 b 285 1024 328 1128 285 1106 z m 382 1022 b 444 1078 382 1069 390 1078 b 507 1022 499 1078 507 1069 b 444 967 507 975 499 967 b 382 1022 390 967 382 975 z "},"v":{"ha":906,"x_min":0,"x_max":0,"o":"m 899 833 l 636 833 l 454 194 l 446 194 l 281 833 l 7 833 l 238 0 l 644 0 z "},"w":{"ha":1379,"x_min":0,"x_max":0,"o":"m 904 833 l 476 833 l 392 181 l 383 181 l 263 833 l 7 833 l 176 0 l 596 0 l 682 639 l 690 639 l 792 0 l 1208 0 l 1372 833 l 1132 833 l 1014 181 l 1006 181 z "},"ẃ":{"ha":1379,"x_min":0,"x_max":0,"o":"m 904 833 l 476 833 l 392 181 l 383 181 l 263 833 l 7 833 l 176 0 l 596 0 l 682 639 l 690 639 l 792 0 l 1208 0 l 1372 833 l 1132 833 l 1014 181 l 1006 181 z m 593 917 l 760 917 l 968 1113 l 690 1113 z "},"ŵ":{"ha":1379,"x_min":0,"x_max":0,"o":"m 904 833 l 476 833 l 392 181 l 383 181 l 263 833 l 7 833 l 176 0 l 596 0 l 682 639 l 690 639 l 792 0 l 1208 0 l 1372 833 l 1132 833 l 1014 181 l 1006 181 z m 411 917 l 565 917 l 686 996 l 694 996 l 813 917 l 967 917 l 776 1111 l 601 1111 z "},"ẅ":{"ha":1379,"x_min":0,"x_max":0,"o":"m 904 833 l 476 833 l 392 181 l 383 181 l 263 833 l 7 833 l 176 0 l 596 0 l 682 639 l 690 639 l 792 0 l 1208 0 l 1372 833 l 1132 833 l 1014 181 l 1006 181 z m 426 917 l 649 917 l 649 1111 l 426 1111 z m 732 917 l 954 917 l 954 1111 l 732 1111 z "},"ẁ":{"ha":1379,"x_min":0,"x_max":0,"o":"m 904 833 l 476 833 l 392 181 l 383 181 l 263 833 l 7 833 l 176 0 l 596 0 l 682 639 l 690 639 l 792 0 l 1208 0 l 1372 833 l 1132 833 l 1014 181 l 1006 181 z m 413 1113 l 621 917 l 788 917 l 690 1113 z "},"x":{"ha":914,"x_min":0,"x_max":0,"o":"m 19 833 l 269 428 l 7 0 l 285 0 l 435 296 l 443 296 l 610 0 l 907 0 l 610 431 l 857 833 l 581 833 l 446 565 l 438 565 l 307 833 z "},"y":{"ha":883,"x_min":0,"x_max":0,"o":"m 635 -65 l 876 833 l 618 833 l 458 217 l 450 217 l 282 833 l 7 833 l 238 28 l 404 28 l 397 4 b 263 -56 382 -50 368 -56 l 106 -56 l 106 -278 l 296 -278 b 635 -65 518 -278 589 -235 z "},"ý":{"ha":883,"x_min":0,"x_max":0,"o":"m 635 -65 l 876 833 l 618 833 l 458 217 l 450 217 l 282 833 l 7 833 l 238 28 l 404 28 l 397 4 b 263 -56 382 -50 368 -56 l 106 -56 l 106 -278 l 296 -278 b 635 -65 518 -278 589 -235 z m 357 917 l 524 917 l 732 1113 l 454 1113 z "},"ŷ":{"ha":883,"x_min":0,"x_max":0,"o":"m 635 -65 l 876 833 l 618 833 l 458 217 l 450 217 l 282 833 l 7 833 l 238 28 l 404 28 l 397 4 b 263 -56 382 -50 368 -56 l 106 -56 l 106 -278 l 296 -278 b 635 -65 518 -278 589 -235 z m 175 917 l 329 917 l 450 996 l 458 996 l 576 917 l 731 917 l 540 1111 l 365 1111 z "},"ÿ":{"ha":883,"x_min":0,"x_max":0,"o":"m 635 -65 l 876 833 l 618 833 l 458 217 l 450 217 l 282 833 l 7 833 l 238 28 l 404 28 l 397 4 b 263 -56 382 -50 368 -56 l 106 -56 l 106 -278 l 296 -278 b 635 -65 518 -278 589 -235 z m 190 917 l 413 917 l 413 1111 l 190 1111 z m 496 917 l 718 917 l 718 1111 l 496 1111 z "},"ỳ":{"ha":883,"x_min":0,"x_max":0,"o":"m 635 -65 l 876 833 l 618 833 l 458 217 l 450 217 l 282 833 l 7 833 l 238 28 l 404 28 l 397 4 b 263 -56 382 -50 368 -56 l 106 -56 l 106 -278 l 296 -278 b 635 -65 518 -278 589 -235 z m 176 1113 l 385 917 l 551 917 l 454 1113 z "},"z":{"ha":953,"x_min":0,"x_max":0,"o":"m 81 833 l 81 597 l 476 597 l 56 201 l 56 0 l 897 0 l 897 236 l 458 236 l 875 629 l 875 833 z "},"ź":{"ha":953,"x_min":0,"x_max":0,"o":"m 81 833 l 81 597 l 476 597 l 56 201 l 56 0 l 897 0 l 897 236 l 458 236 l 875 629 l 875 833 z m 394 917 l 561 917 l 769 1113 l 492 1113 z "},"ž":{"ha":953,"x_min":0,"x_max":0,"o":"m 81 833 l 81 597 l 476 597 l 56 201 l 56 0 l 897 0 l 897 236 l 458 236 l 875 629 l 875 833 z m 213 1111 l 403 917 l 578 917 l 768 1111 l 614 1111 l 496 1032 l 488 1032 l 367 1111 z "},"ż":{"ha":953,"x_min":0,"x_max":0,"o":"m 81 833 l 81 597 l 476 597 l 56 201 l 56 0 l 897 0 l 897 236 l 458 236 l 875 629 l 875 833 z m 353 917 l 631 917 l 631 1111 l 353 1111 z "},"ﬁ":{"ha":1014,"x_min":0,"x_max":0,"o":"m 674 833 l 674 0 l 938 0 l 938 833 z m 42 611 l 125 611 l 125 0 l 389 0 l 389 611 l 569 611 l 569 833 l 389 833 l 389 842 b 471 917 389 910 397 917 l 944 917 l 944 1111 l 458 1111 b 125 833 193 1111 125 1056 l 42 833 z "},"ﬂ":{"ha":1082,"x_min":0,"x_max":0,"o":"m 1040 236 b 931 307 942 236 931 243 l 931 1111 l 458 1111 b 125 833 193 1111 125 1056 l 42 833 l 42 611 l 125 611 l 125 0 l 389 0 l 389 611 l 569 611 l 569 833 l 389 833 l 389 842 b 471 917 389 910 397 917 l 667 917 l 667 228 b 889 0 665 46 710 0 l 1040 0 z "},"ª":{"ha":550,"x_min":0,"x_max":0,"o":"m 285 1128 b 103 1006 139 1128 103 1103 l 103 990 l 222 990 b 285 1044 219 1035 226 1044 b 340 989 335 1044 340 1035 l 340 968 l 235 968 b 90 853 119 968 90 944 b 236 736 90 757 119 735 b 340 801 294 738 328 760 l 340 744 l 460 744 l 460 997 b 285 1128 460 1101 424 1128 z m 69 578 l 481 578 l 481 661 l 69 661 z m 215 851 b 285 885 215 876 222 885 l 340 885 l 340 864 b 285 822 340 836 324 824 b 215 851 222 822 215 824 z "},"º":{"ha":550,"x_min":0,"x_max":0,"o":"m 276 1039 b 347 932 340 1039 347 1024 b 276 826 347 840 340 826 b 206 932 211 826 206 840 b 276 1039 206 1024 211 1039 z m 69 578 l 481 578 l 481 661 l 69 661 z m 81 932 b 276 736 81 776 119 736 b 472 932 432 736 472 776 b 276 1128 472 1089 432 1128 b 81 932 119 1128 81 1089 z "},"¹":{"ha":639,"x_min":0,"x_max":0,"o":"m 306 0 l 569 0 l 569 1083 l 319 1083 b 168 915 319 942 289 915 l 42 915 l 42 721 l 306 721 z "},"²":{"ha":1004,"x_min":0,"x_max":0,"o":"m 949 0 l 949 250 l 526 250 l 828 508 b 926 822 940 606 922 667 b 488 1100 935 1044 847 1100 b 42 725 142 1100 42 1025 l 347 725 b 486 864 347 849 361 864 b 643 769 628 864 643 853 b 529 599 643 710 621 675 l 50 194 l 50 0 z "},"³":{"ha":1075,"x_min":0,"x_max":0,"o":"m 514 206 b 333 317 351 206 333 217 l 56 317 b 522 -17 56 50 149 -17 b 1006 281 908 -17 1006 43 b 813 553 1006 450 946 535 b 972 808 924 572 972 651 b 522 1100 972 1042 882 1100 b 75 788 164 1100 75 1038 l 339 788 b 522 878 339 868 368 878 b 708 772 679 878 708 861 b 522 664 708 681 679 664 l 346 664 l 346 442 l 514 442 b 728 325 694 442 728 424 b 514 206 728 225 694 206 z "},"⁄":{"ha":808,"x_min":0,"x_max":0,"o":"m -111 -278 l 56 -278 l 864 1111 l 697 1111 z "}," ":{"ha":417,"x_min":0,"x_max":0,"o":""},".":{"ha":486,"x_min":0,"x_max":0,"o":"m 83 264 l 83 0 l 403 0 l 403 264 z "},",":{"ha":486,"x_min":0,"x_max":0,"o":"m 83 264 l 83 0 l 274 0 b 85 -56 267 -46 228 -56 l 85 -133 l 179 -133 b 403 94 354 -133 403 -85 l 403 264 z "},":":{"ha":486,"x_min":0,"x_max":0,"o":"m 83 819 l 83 556 l 403 556 l 403 819 z m 83 0 l 403 0 l 403 264 l 83 264 z "},";":{"ha":500,"x_min":0,"x_max":0,"o":"m 83 819 l 83 556 l 403 556 l 403 819 z m 97 0 l 288 0 b 99 -56 281 -46 242 -56 l 99 -133 l 193 -133 b 417 94 368 -133 417 -85 l 417 264 l 97 264 z "},"…":{"ha":486,"x_min":0,"x_max":0,"o":"m 83 264 l 83 0 l 403 0 l 403 264 z "},"!":{"ha":486,"x_min":0,"x_max":0,"o":"m 83 264 l 83 0 l 403 0 l 403 264 z m 90 1111 l 103 746 l 132 389 l 354 389 l 381 753 l 396 1111 z "},"¡":{"ha":486,"x_min":0,"x_max":0,"o":"m 83 569 l 403 569 l 403 833 l 83 833 z m 90 -278 l 396 -278 l 381 81 l 354 444 l 132 444 l 103 88 z "},"?":{"ha":1092,"x_min":0,"x_max":0,"o":"m 365 264 l 365 0 l 685 0 l 685 264 z m 83 736 l 389 736 b 539 893 389 878 404 893 b 703 815 686 893 703 885 b 522 668 703 743 667 714 b 386 389 414 632 386 576 l 664 389 b 815 550 664 506 679 522 b 1008 821 969 582 1008 636 b 572 1088 1008 1035 921 1088 l 508 1088 b 83 736 168 1088 83 1017 z "},"¿":{"ha":1050,"x_min":0,"x_max":0,"o":"m 685 529 l 685 793 l 365 793 l 365 529 z m 42 -28 b 478 -294 42 -242 129 -294 l 542 -294 b 967 57 882 -294 967 -224 l 661 57 b 511 -100 661 -85 646 -100 b 347 -22 364 -100 347 -92 b 528 125 347 50 383 79 b 664 404 636 161 664 217 l 386 404 b 235 243 386 288 371 271 b 42 -28 81 211 42 157 z "},"·":{"ha":486,"x_min":0,"x_max":0,"o":"m 83 567 l 83 303 l 403 303 l 403 567 z "},"•":{"ha":556,"x_min":0,"x_max":0,"o":"m 279 243 b 472 424 433 243 472 279 b 279 604 472 568 433 604 b 83 424 122 604 83 568 b 279 243 83 279 122 243 z "},"*":{"ha":714,"x_min":0,"x_max":0,"o":"m 411 961 l 454 1111 l 260 1111 l 303 961 l 179 1069 l 83 918 l 249 876 l 83 835 l 179 683 l 303 792 l 260 642 l 454 642 l 411 792 l 533 683 l 631 835 l 465 876 l 631 918 l 533 1069 z "},"#":{"ha":1333,"x_min":0,"x_max":0,"o":"m 219 0 l 414 0 l 469 236 l 692 236 l 636 0 l 831 0 l 886 236 l 1111 236 l 1153 431 l 932 431 l 985 653 l 1208 653 l 1250 847 l 1031 847 l 1086 1083 l 892 1083 l 836 847 l 614 847 l 669 1083 l 475 1083 l 419 847 l 222 847 l 181 653 l 374 653 l 321 431 l 125 431 l 83 236 l 275 236 z m 515 431 l 568 653 l 790 653 l 738 431 z "},"/":{"ha":778,"x_min":0,"x_max":0,"o":"m 83 -278 l 250 -278 l 694 1111 l 528 1111 z "},"\\":{"ha":778,"x_min":0,"x_max":0,"o":"m 694 -278 l 250 1111 l 83 1111 l 528 -278 z "},"-":{"ha":722,"x_min":0,"x_max":0,"o":"m 83 553 l 83 317 l 639 317 l 639 553 z "},"–":{"ha":982,"x_min":0,"x_max":0,"o":"m 83 553 l 83 317 l 899 317 l 899 553 z "},"—":{"ha":1481,"x_min":0,"x_max":0,"o":"m 83 553 l 83 317 l 1397 317 l 1397 553 z "},"_":{"ha":982,"x_min":0,"x_max":0,"o":"m 83 -42 l 83 -236 l 899 -236 l 899 -42 z "},"(":{"ha":567,"x_min":0,"x_max":0,"o":"m 483 -294 l 483 -169 b 306 417 324 -169 306 -111 b 483 1003 306 944 324 1003 l 483 1128 b 83 417 203 1128 83 914 b 483 -294 83 -81 203 -294 z "},")":{"ha":567,"x_min":0,"x_max":0,"o":"m 83 -169 l 83 -294 b 483 417 364 -294 483 -81 b 83 1128 483 914 364 1128 l 83 1003 b 261 417 243 1003 261 944 b 83 -169 261 -111 243 -169 z "},"{":{"ha":625,"x_min":0,"x_max":0,"o":"m 542 -294 l 542 -169 b 365 219 386 -169 368 -131 b 254 392 364 340 331 392 l 254 475 b 365 646 331 475 364 526 b 542 1003 368 967 386 1003 l 542 1128 b 169 613 253 1128 179 1025 b 83 494 167 506 158 494 l 83 369 b 171 251 161 369 169 358 b 542 -294 178 -185 251 -294 z "},"}":{"ha":625,"x_min":0,"x_max":0,"o":"m 83 -169 l 83 -294 b 454 251 374 -294 447 -185 b 542 369 456 358 464 369 l 542 494 b 456 613 467 494 458 506 b 83 1128 446 1025 372 1128 l 83 1003 b 260 646 239 1003 257 967 b 371 475 261 526 294 475 l 371 392 b 260 219 294 392 261 340 b 83 -169 257 -131 239 -169 z "},"[":{"ha":472,"x_min":0,"x_max":0,"o":"m 389 1111 l 83 1111 l 83 -278 l 389 -278 l 389 -153 l 292 -153 l 292 986 l 389 986 z "},"]":{"ha":472,"x_min":0,"x_max":0,"o":"m 389 1111 l 83 1111 l 83 986 l 181 986 l 181 -153 l 83 -153 l 83 -278 l 389 -278 z "},"‚":{"ha":486,"x_min":0,"x_max":0,"o":"m 83 264 l 83 0 l 274 0 b 85 -56 267 -46 228 -56 l 85 -133 l 179 -133 b 403 94 354 -133 403 -85 l 403 264 z "},"„":{"ha":972,"x_min":0,"x_max":0,"o":"m 83 264 l 83 0 l 274 0 b 85 -56 267 -46 228 -56 l 85 -133 l 179 -133 b 403 94 354 -133 403 -85 l 403 264 z m 569 0 l 760 0 b 571 -56 753 -46 714 -56 l 571 -133 l 665 -133 b 889 94 840 -133 889 -85 l 889 264 l 569 264 z "},"“":{"ha":917,"x_min":0,"x_max":0,"o":"m 833 708 l 833 972 l 643 972 b 832 1028 650 1018 689 1028 l 832 1106 l 738 1106 b 514 878 563 1106 514 1057 l 514 708 z m 28 708 l 347 708 l 347 972 l 157 972 b 346 1028 164 1018 203 1028 l 346 1106 l 251 1106 b 28 878 76 1106 28 1057 z "},"”":{"ha":917,"x_min":0,"x_max":0,"o":"m 83 1111 l 83 847 l 274 847 b 85 792 267 801 228 792 l 85 714 l 179 714 b 403 942 354 714 403 763 l 403 1111 z m 569 847 l 760 847 b 571 792 753 801 714 792 l 571 714 l 665 714 b 889 942 840 714 889 763 l 889 1111 l 569 1111 z "},"‘":{"ha":486,"x_min":0,"x_max":0,"o":"m 403 708 l 403 972 l 213 972 b 401 1028 219 1018 258 1028 l 401 1106 l 307 1106 b 83 878 132 1106 83 1057 l 83 708 z "},"’":{"ha":486,"x_min":0,"x_max":0,"o":"m 83 1111 l 83 847 l 274 847 b 85 792 267 801 228 792 l 85 714 l 179 714 b 403 942 354 714 403 763 l 403 1111 z "},"«":{"ha":806,"x_min":0,"x_max":0,"o":"m 83 339 l 389 111 l 389 292 l 226 413 l 226 421 l 389 539 l 389 719 l 83 492 z m 417 339 l 722 111 l 722 292 l 560 413 l 560 421 l 722 539 l 722 719 l 417 492 z "},"»":{"ha":806,"x_min":0,"x_max":0,"o":"m 722 339 l 722 492 l 417 719 l 417 539 l 579 421 l 579 413 l 417 292 l 417 111 z m 83 111 l 389 339 l 389 492 l 83 719 l 83 539 l 246 421 l 246 413 l 83 292 z "},"‹":{"ha":472,"x_min":0,"x_max":0,"o":"m 83 339 l 389 111 l 389 292 l 226 413 l 226 421 l 389 539 l 389 719 l 83 492 z "},"›":{"ha":472,"x_min":0,"x_max":0,"o":"m 389 339 l 389 492 l 83 719 l 83 539 l 246 421 l 246 413 l 83 292 l 83 111 z "},"\"":{"ha":847,"x_min":0,"x_max":0,"o":"m 153 1113 l 431 1113 l 250 722 l 83 722 z m 417 722 l 486 1113 l 764 1113 l 583 722 z "},"'":{"ha":514,"x_min":0,"x_max":0,"o":"m 153 1113 l 431 1113 l 250 722 l 83 722 z "},"ƒ":{"ha":864,"x_min":0,"x_max":0,"o":"m 656 917 l 824 917 l 857 1111 l 676 1111 b 294 833 411 1111 333 1056 l 186 833 l 147 611 l 256 611 l 151 13 b 47 -42 138 -32 115 -42 l 7 -278 l 35 -278 b 415 3 300 -278 376 -222 l 521 611 l 717 611 l 756 833 l 560 833 l 561 842 b 656 917 572 910 582 917 z "},"@":{"ha":1163,"x_min":0,"x_max":0,"o":"m 679 740 l 679 649 b 513 751 663 721 613 751 b 332 507 368 751 332 703 b 521 235 332 289 369 235 b 685 371 621 235 671 275 l 685 243 l 894 243 b 1121 507 1053 243 1121 322 b 600 1013 1121 911 1017 1013 b 42 507 153 1013 42 911 b 536 0 42 101 140 0 l 776 0 l 776 125 l 536 125 b 203 493 236 125 203 161 b 600 888 203 849 243 888 b 968 507 918 888 956 850 b 900 368 972 383 965 369 l 835 368 l 835 740 z m 497 507 b 588 614 497 603 506 614 b 679 535 651 614 679 590 l 679 431 b 588 372 679 390 651 372 b 497 507 506 372 497 386 z "},"&":{"ha":1132,"x_min":0,"x_max":0,"o":"m 1076 236 l 1033 236 b 936 347 947 236 938 247 l 936 468 l 1036 468 l 1036 675 l 924 675 l 924 731 l 646 731 l 646 675 l 476 675 b 389 779 418 681 389 701 b 518 878 389 868 401 878 b 649 826 636 878 649 872 l 940 826 b 518 1100 940 1046 856 1100 b 97 799 182 1100 97 1040 b 263 564 97 656 147 582 b 56 276 118 546 56 456 b 442 -17 56 42 154 -17 b 735 153 593 -17 689 36 b 1007 0 788 49 876 0 l 1076 0 z m 361 343 b 476 467 361 442 396 467 l 646 467 l 646 343 b 518 219 646 257 607 219 b 361 343 383 219 361 232 z "},"¶":{"ha":1356,"x_min":0,"x_max":0,"o":"m 897 1083 l 389 1083 b 42 690 111 1083 42 1004 b 364 285 42 381 106 299 l 633 285 l 633 0 l 897 0 z m 319 686 b 464 847 319 831 333 847 l 633 847 l 633 521 l 464 521 b 319 686 333 521 319 538 z m 1022 0 l 1286 0 l 1286 1083 l 1022 1083 z "},"§":{"ha":968,"x_min":0,"x_max":0,"o":"m 635 461 b 556 381 636 432 608 394 l 497 390 b 333 488 361 414 333 436 b 413 568 332 517 360 554 l 471 558 b 635 461 607 535 635 513 z m 56 446 b 221 247 56 361 88 286 b 506 188 292 226 356 210 b 635 103 596 174 635 157 b 490 29 635 36 621 29 b 340 169 356 29 340 40 l 76 169 b 503 -151 76 -92 161 -151 b 913 114 831 -151 913 -99 b 769 331 913 225 883 288 b 722 346 756 336 739 342 b 913 503 860 347 913 394 b 747 701 913 588 881 663 b 463 761 676 722 613 739 b 333 846 372 775 333 792 b 478 919 333 913 347 919 b 628 779 613 919 628 908 l 892 779 b 465 1100 892 1040 807 1100 b 56 835 138 1100 56 1047 b 199 618 56 724 85 661 b 246 603 213 613 229 607 b 56 446 104 601 56 554 z "},"©":{"ha":1264,"x_min":0,"x_max":0,"o":"m 632 933 b 1049 500 1007 933 1049 890 b 632 67 1049 110 1007 67 b 215 500 257 67 215 110 b 632 933 215 890 257 933 z m 42 500 b 632 -58 42 53 160 -58 b 1222 500 1104 -58 1222 53 b 632 1058 1222 947 1104 1058 b 42 500 160 1058 42 947 z m 321 504 b 636 201 321 263 383 201 b 939 438 878 201 939 249 l 939 471 l 779 469 l 779 435 b 636 326 774 338 758 326 b 482 504 497 326 482 344 b 636 682 482 664 497 682 b 779 576 758 682 774 671 l 779 540 l 939 539 l 939 574 b 636 807 939 760 878 807 b 321 504 383 807 321 746 z "},"®":{"ha":1069,"x_min":0,"x_max":0,"o":"m 535 1017 b 907 629 869 1017 907 978 b 535 242 907 281 869 242 b 163 629 200 242 163 281 b 535 1017 163 978 200 1017 z m 7 629 b 535 129 7 229 113 129 b 1063 629 957 129 1063 229 b 535 1128 1063 1028 957 1128 b 7 629 113 1128 7 1028 z m 325 403 l 454 403 l 454 572 l 550 572 b 625 514 618 572 625 567 l 625 403 l 760 403 l 760 521 b 665 618 760 582 728 611 b 760 744 731 626 760 665 b 600 883 760 856 728 883 l 325 883 z m 454 671 l 454 778 l 567 778 b 631 725 625 778 631 772 b 567 671 631 676 625 671 z "},"™":{"ha":867,"x_min":0,"x_max":0,"o":"m 160 778 l 247 778 l 247 1028 l 349 1028 l 349 1103 l 61 1103 l 61 1028 l 160 1028 z m 379 778 l 467 778 l 467 1019 l 469 1019 l 518 778 l 653 778 l 703 1019 l 706 1019 l 706 778 l 793 778 l 793 1103 l 639 1103 l 590 861 l 586 861 l 538 1103 l 379 1103 z "},"°":{"ha":444,"x_min":0,"x_max":0,"o":"m 224 835 b 361 968 324 835 361 871 b 224 1099 361 1063 324 1099 b 83 968 121 1099 83 1063 b 224 835 83 871 121 835 z m 153 967 b 222 1049 153 1026 172 1049 b 292 967 272 1049 292 1026 b 222 885 292 907 272 885 b 153 967 172 885 153 907 z "},"|":{"ha":361,"x_min":0,"x_max":0,"o":"m 83 -278 l 278 -278 l 278 1056 l 83 1056 z "},"¦":{"ha":361,"x_min":0,"x_max":0,"o":"m 83 451 l 278 451 l 278 1056 l 83 1056 z m 83 -278 l 278 -278 l 278 326 l 83 326 z "},"†":{"ha":771,"x_min":0,"x_max":0,"o":"m 288 313 l 382 81 l 390 81 l 482 313 l 458 715 l 688 694 l 688 889 l 461 868 l 482 1111 l 288 1111 l 308 868 l 83 890 l 83 696 l 311 715 z "},"‡":{"ha":771,"x_min":0,"x_max":0,"o":"m 288 42 l 482 42 l 461 285 l 688 264 l 688 458 l 454 436 l 454 717 l 688 694 l 688 889 l 461 868 l 482 1111 l 288 1111 l 308 868 l 83 890 l 83 696 l 315 715 l 315 438 l 83 457 l 83 263 l 308 285 z "},"¢":{"ha":940,"x_min":0,"x_max":0,"o":"m 899 328 l 635 328 b 478 199 625 211 610 199 b 307 417 324 199 307 221 b 478 635 307 613 324 635 b 635 510 611 635 626 622 l 899 510 b 567 804 892 724 822 792 l 567 1056 l 372 1056 l 372 803 b 42 417 111 786 42 693 b 372 31 42 140 111 47 l 372 -194 l 567 -194 l 567 29 b 899 328 824 42 892 111 z "},"¤":{"ha":1031,"x_min":0,"x_max":0,"o":"m 517 714 b 696 514 646 714 696 661 b 517 314 696 367 646 314 b 338 514 388 314 338 367 b 517 714 338 661 388 714 z m 83 219 l 221 82 l 331 192 b 517 167 381 175 442 167 b 701 190 590 167 651 174 l 810 82 l 947 219 l 846 321 b 876 514 867 371 876 435 b 846 707 876 593 867 657 l 947 808 l 810 946 l 701 838 b 517 861 651 854 590 861 b 331 836 442 861 381 853 l 221 946 l 83 808 l 188 704 b 157 514 167 656 157 592 b 188 324 157 436 167 372 z "},"$":{"ha":932,"x_min":0,"x_max":0,"o":"m 306 361 l 306 379 l 42 379 l 42 361 b 386 71 42 146 115 79 l 386 -122 l 581 -122 l 581 72 b 890 322 824 85 890 146 b 725 565 890 451 858 526 b 454 625 654 586 590 603 b 339 710 378 639 339 656 b 469 783 339 776 353 783 b 606 668 590 783 606 772 l 606 643 l 869 643 l 869 668 b 581 960 869 871 807 944 l 581 1128 l 386 1128 l 386 963 b 61 699 131 954 61 894 b 204 482 61 588 90 525 b 463 421 288 450 414 431 b 613 328 585 399 613 376 b 463 250 613 258 596 250 b 306 361 322 250 306 261 z "},"€":{"ha":1321,"x_min":0,"x_max":0,"o":"m 42 726 l 42 601 l 176 601 b 175 542 175 582 175 563 l 175 490 l 42 490 l 42 365 l 183 365 b 729 -17 215 64 351 -17 b 1279 376 1172 -17 1282 79 l 974 376 b 729 219 976 243 951 219 b 489 365 563 219 507 238 l 842 365 l 842 490 l 481 490 b 481 542 481 507 481 524 l 481 601 l 842 601 l 842 726 l 490 726 b 729 864 510 847 567 864 b 974 710 951 864 976 840 l 1279 710 b 729 1100 1282 1006 1172 1100 b 183 726 354 1100 218 1021 z "},"£":{"ha":961,"x_min":0,"x_max":0,"o":"m 542 921 l 906 921 l 906 1115 l 517 1115 b 183 835 250 1115 183 1060 l 183 735 l 56 735 l 56 610 l 183 610 l 183 499 l 56 499 l 56 374 l 183 374 l 183 251 b 115 194 183 203 172 194 l 83 194 l 83 0 l 919 0 l 919 236 l 446 236 l 447 281 l 447 374 l 772 374 l 772 499 l 447 499 l 447 610 l 772 610 l 772 735 l 447 735 l 447 833 b 542 921 447 913 457 921 z "},"¥":{"ha":1193,"x_min":0,"x_max":0,"o":"m 189 500 l 189 375 l 461 375 l 461 264 l 189 264 l 189 139 l 461 139 l 461 0 l 753 0 l 753 139 l 989 139 l 989 264 l 753 264 l 753 375 l 989 375 l 989 500 l 761 500 l 1138 1083 l 810 1083 l 613 749 l 604 749 l 401 1083 l 56 1083 l 451 500 z "},"+":{"ha":982,"x_min":0,"x_max":0,"o":"m 83 553 l 83 317 l 374 317 l 374 28 l 610 28 l 610 317 l 899 317 l 899 553 l 610 553 l 610 843 l 374 843 l 374 553 z "},"−":{"ha":722,"x_min":0,"x_max":0,"o":"m 82 553 l 82 317 l 638 317 l 638 553 z "},"×":{"ha":910,"x_min":0,"x_max":0,"o":"m 83 250 l 250 83 l 456 289 l 660 83 l 826 251 l 622 456 l 826 660 l 660 826 l 456 622 l 250 828 l 83 660 l 289 456 z "},"÷":{"ha":982,"x_min":0,"x_max":0,"o":"m 83 542 l 83 347 l 899 347 l 899 542 z m 353 56 l 631 56 l 631 264 l 353 264 z m 353 625 l 631 625 l 631 833 l 353 833 z "},"=":{"ha":982,"x_min":0,"x_max":0,"o":"m 83 386 l 83 150 l 899 150 l 899 386 z m 83 525 l 899 525 l 899 761 l 83 761 z "},"≠":{"ha":982,"x_min":0,"x_max":0,"o":"m 83 386 l 83 150 l 338 150 l 200 -278 l 367 -278 l 504 150 l 899 150 l 899 386 l 579 386 l 624 525 l 899 525 l 899 761 l 699 761 l 811 1111 l 644 1111 l 532 761 l 83 761 l 83 525 l 457 525 l 413 386 z "},">":{"ha":639,"x_min":0,"x_max":0,"o":"m 556 325 l 556 506 l 83 763 l 83 582 l 399 421 l 399 413 l 83 249 l 83 68 z "},"<":{"ha":639,"x_min":0,"x_max":0,"o":"m 83 325 l 556 68 l 556 249 l 240 413 l 240 421 l 556 582 l 556 763 l 83 506 z "},"±":{"ha":982,"x_min":0,"x_max":0,"o":"m 83 675 l 83 481 l 374 481 l 374 306 l 610 306 l 610 481 l 899 481 l 899 675 l 610 675 l 610 850 l 374 850 l 374 675 z m 214 49 l 769 49 l 769 243 l 214 243 z "},"≈":{"ha":722,"x_min":0,"x_max":0,"o":"m 478 306 b 267 385 414 306 392 385 b 83 194 133 385 83 333 l 181 194 b 244 251 192 236 208 251 b 456 172 308 251 331 172 b 639 363 589 172 639 224 l 542 363 b 478 306 531 321 514 306 z m 83 472 l 181 472 b 244 529 192 514 208 529 b 456 450 308 529 331 450 b 639 640 589 450 639 501 l 542 640 b 478 583 531 599 514 583 b 267 663 414 583 392 663 b 83 472 133 663 83 611 z "},"~":{"ha":722,"x_min":0,"x_max":0,"o":"m 478 403 b 267 482 414 403 392 482 b 83 292 133 482 83 431 l 181 292 b 244 349 192 333 208 349 b 456 269 308 349 331 269 b 639 460 589 269 639 321 l 542 460 b 478 403 531 418 514 403 z "},"^":{"ha":722,"x_min":0,"x_max":0,"o":"m 274 954 l 83 635 l 238 635 l 358 839 l 367 839 l 485 635 l 639 635 l 449 954 z "},"%":{"ha":1340,"x_min":0,"x_max":0,"o":"m 251 0 l 446 0 l 1096 1083 l 901 1083 z m 42 821 b 313 543 42 599 96 543 b 583 821 529 543 583 599 b 313 1099 583 1043 529 1099 b 42 821 96 1099 42 1043 z m 204 821 b 313 965 204 951 215 965 b 421 821 410 965 421 951 b 313 676 421 690 410 676 b 204 821 215 676 204 690 z m 757 261 b 1028 -17 757 39 811 -17 b 1299 261 1244 -17 1299 39 b 1028 539 1299 483 1244 539 b 757 261 811 539 757 483 z m 919 261 b 1028 406 919 392 931 406 b 1136 261 1125 406 1136 392 b 1028 117 1136 131 1125 117 b 919 261 931 117 919 131 z "},"‰":{"ha":1965,"x_min":0,"x_max":0,"o":"m 251 0 l 446 0 l 1096 1083 l 901 1083 z m 42 821 b 313 543 42 599 96 543 b 583 821 529 543 583 599 b 313 1099 583 1043 529 1099 b 42 821 96 1099 42 1043 z m 204 821 b 313 965 204 951 215 965 b 421 821 410 965 421 951 b 313 676 421 690 410 676 b 204 821 215 676 204 690 z m 757 261 b 1028 -17 757 39 811 -17 b 1299 261 1244 -17 1299 39 b 1028 539 1299 483 1244 539 b 757 261 811 539 757 483 z m 919 261 b 1028 406 919 392 931 406 b 1136 261 1125 406 1136 392 b 1028 117 1136 131 1125 117 b 919 261 931 117 919 131 z m 1382 261 b 1653 -17 1382 39 1436 -17 b 1924 261 1869 -17 1924 39 b 1653 539 1924 483 1869 539 b 1382 261 1436 539 1382 483 z m 1544 261 b 1653 406 1544 392 1556 406 b 1761 261 1750 406 1761 392 b 1653 117 1761 131 1750 117 b 1544 261 1556 117 1544 131 z "},"̈":{"ha":0,"x_min":0,"x_max":0,"o":"m 83 1111 l 83 917 l 306 917 l 306 1111 z m 389 917 l 611 917 l 611 1111 l 389 1111 z "},"̇":{"ha":0,"x_min":0,"x_max":0,"o":"m 83 1111 l 83 917 l 361 917 l 361 1111 z "},"̀":{"ha":0,"x_min":0,"x_max":0,"o":"m 458 917 l 361 1113 l 83 1113 l 292 917 z "},"́":{"ha":0,"x_min":0,"x_max":0,"o":"m 83 917 l 250 917 l 458 1113 l 181 1113 z "},"̋":{"ha":0,"x_min":0,"x_max":0,"o":"m 347 917 l 500 917 l 653 1113 l 444 1113 z m 83 917 l 236 917 l 389 1113 l 181 1113 z "},"̂":{"ha":0,"x_min":0,"x_max":0,"o":"m 274 1111 l 83 917 l 238 917 l 358 996 l 367 996 l 485 917 l 639 917 l 449 1111 z "},"̌":{"ha":0,"x_min":0,"x_max":0,"o":"m 274 917 l 449 917 l 639 1111 l 485 1111 l 367 1032 l 358 1032 l 238 1111 l 83 1111 z "},"̆":{"ha":0,"x_min":0,"x_max":0,"o":"m 500 1111 l 375 1111 b 293 969 375 992 363 969 b 208 1110 221 969 208 992 l 83 1111 b 293 914 83 944 117 914 b 500 1111 468 914 500 944 z "},"̊":{"ha":0,"x_min":0,"x_max":0,"o":"m 244 917 b 403 1024 360 917 403 942 b 244 1128 403 1106 360 1128 b 83 1024 126 1128 83 1106 b 244 917 83 942 126 917 z m 181 1022 b 243 1078 181 1069 189 1078 b 306 1022 297 1078 306 1069 b 243 967 306 975 297 967 b 181 1022 189 967 181 975 z "},"̃":{"ha":0,"x_min":0,"x_max":0,"o":"m 478 1049 b 267 1128 414 1049 392 1128 b 83 938 133 1128 83 1076 l 181 938 b 244 994 192 979 208 994 b 456 915 308 994 331 915 b 639 1106 589 915 639 967 l 542 1106 b 478 1049 531 1064 514 1049 z "},"̄":{"ha":0,"x_min":0,"x_max":0,"o":"m 528 1056 l 83 1056 l 83 931 l 528 931 z "},"̒":{"ha":0,"x_min":0,"x_max":0,"o":"m 347 889 l 347 1022 l 214 1022 b 346 1064 222 1056 254 1064 l 346 1128 l 307 1128 b 83 947 132 1128 83 1093 l 83 889 z "},"̦":{"ha":0,"x_min":0,"x_max":0,"o":"m 83 -56 l 83 -189 l 217 -189 b 85 -231 208 -222 176 -231 l 85 -294 l 124 -294 b 347 -114 299 -294 347 -260 l 347 -56 z "},"̧":{"ha":0,"x_min":0,"x_max":0,"o":"m 346 -172 b 207 -54 346 -103 314 -65 l 240 1 l 199 1 l 83 -50 l 83 -114 b 218 -165 193 -114 218 -126 l 218 -179 b 83 -231 218 -218 193 -231 l 83 -294 l 122 -294 b 346 -172 297 -294 346 -262 z "},"̨":{"ha":0,"x_min":0,"x_max":0,"o":"m 83 -187 b 215 -294 83 -265 124 -294 b 304 -278 263 -294 283 -290 l 304 -214 b 211 -179 236 -231 211 -221 b 332 0 211 -135 244 -86 l 268 0 b 83 -187 133 -79 83 -129 z "},"¨":{"ha":694,"x_min":0,"x_max":0,"o":"m 83 1111 l 83 917 l 306 917 l 306 1111 z m 389 917 l 611 917 l 611 1111 l 389 1111 z "},"˙":{"ha":444,"x_min":0,"x_max":0,"o":"m 83 1111 l 83 917 l 361 917 l 361 1111 z "},"`":{"ha":542,"x_min":0,"x_max":0,"o":"m 542 917 l 444 1113 l 167 1113 l 375 917 z "},"´":{"ha":542,"x_min":0,"x_max":0,"o":"m 83 917 l 250 917 l 458 1113 l 181 1113 z "},"˝":{"ha":736,"x_min":0,"x_max":0,"o":"m 347 917 l 500 917 l 653 1113 l 444 1113 z m 83 917 l 236 917 l 389 1113 l 181 1113 z "},"ˆ":{"ha":722,"x_min":0,"x_max":0,"o":"m 274 1111 l 83 917 l 238 917 l 358 996 l 367 996 l 485 917 l 639 917 l 449 1111 z "},"ˇ":{"ha":722,"x_min":0,"x_max":0,"o":"m 274 917 l 449 917 l 639 1111 l 485 1111 l 367 1032 l 358 1032 l 238 1111 l 83 1111 z "},"˘":{"ha":583,"x_min":0,"x_max":0,"o":"m 500 1111 l 375 1111 b 293 969 375 992 363 969 b 208 1110 221 969 208 992 l 83 1111 b 293 914 83 944 117 914 b 500 1111 468 914 500 944 z "},"˚":{"ha":486,"x_min":0,"x_max":0,"o":"m 244 917 b 403 1024 360 917 403 942 b 244 1128 403 1106 360 1128 b 83 1024 126 1128 83 1106 b 244 917 83 942 126 917 z m 181 1022 b 243 1078 181 1069 189 1078 b 306 1022 297 1078 306 1069 b 243 967 306 975 297 967 b 181 1022 189 967 181 975 z "},"˜":{"ha":722,"x_min":0,"x_max":0,"o":"m 478 1049 b 267 1128 414 1049 392 1128 b 83 938 133 1128 83 1076 l 181 938 b 244 994 192 979 208 994 b 456 915 308 994 331 915 b 639 1106 589 915 639 967 l 542 1106 b 478 1049 531 1064 514 1049 z "},"¯":{"ha":611,"x_min":0,"x_max":0,"o":"m 528 1056 l 83 1056 l 83 931 l 528 931 z "},"¸":{"ha":429,"x_min":0,"x_max":0,"o":"m 346 -172 b 207 -54 346 -103 314 -65 l 240 1 l 199 1 l 83 -50 l 83 -114 b 218 -165 193 -114 218 -126 l 218 -179 b 83 -231 218 -218 193 -231 l 83 -294 l 122 -294 b 346 -172 297 -294 346 -262 z "},"˛":{"ha":415,"x_min":0,"x_max":0,"o":"m 83 -187 b 215 -294 83 -265 124 -294 b 304 -278 263 -294 283 -290 l 304 -214 b 211 -179 236 -231 211 -221 b 332 0 211 -135 244 -86 l 268 0 b 83 -187 133 -79 83 -129 z "}}}
